<svg id="Layer_1" data-name="Layer 1" xmlns="http://www.w3.org/2000/svg" viewBox="0 0 697.62 101.1"><defs><style>.cls-1{fill:#263238;}</style></defs><path class="cls-1" d="M552.81,38.15v7.31h14.31v9.31H552.81v8H569v9.81H540.5V28.33H569v9.82Z"/><path class="cls-1" d="M603.18,65.21H587.5l-2.44,7.37H572.12l16.19-44.06h14.18l16.13,44.06h-13ZM600.12,56l-4.75-14.38L590.56,56Z"/><path class="cls-1" d="M645.37,72.58l-8.94-16.31h-1.25V72.58H622.87V28.33h19.44a20.16,20.16,0,0,1,9,1.85,12.78,12.78,0,0,1,5.59,5.09,14.39,14.39,0,0,1,1.88,7.31,13,13,0,0,1-2.57,8,13.46,13.46,0,0,1-7.37,4.79l10.06,17.18ZM635.18,48h6.06q5.13,0,5.13-4.62A4.59,4.59,0,0,0,645.09,40a5.34,5.34,0,0,0-3.85-1.25h-6.06Z"/><path class="cls-1" d="M697.62,28.33v9.82H685.68V72.58H673.43V38.15H661.62V28.33Z"/><path class="cls-1" d="M497.74,62.3a18.08,18.08,0,0,1-7.9,7.62,27.4,27.4,0,0,1-12.6,2.66H463.93V28.52h13.31q11.13,0,17.16,5.84t6,16.16A24.43,24.43,0,0,1,497.74,62.3Zm-6.62,1.56Q496,59.09,496,50.52t-4.87-13.34q-4.87-4.78-14.19-4.79h-8.56V68.64h8.56Q486.25,68.64,491.12,63.86Z"/><path class="cls-1" d="M497.74,62.3a18.08,18.08,0,0,1-7.9,7.62,27.4,27.4,0,0,1-12.6,2.66H463.93V28.52h13.31q11.13,0,17.16,5.84t6,16.16A24.43,24.43,0,0,1,497.74,62.3Zm-6.62,1.56Q496,59.09,496,50.52t-4.87-13.34q-4.87-4.78-14.19-4.79h-8.56V68.64h8.56Q486.25,68.64,491.12,63.86Z"/><path class="cls-1" d="M172.44,31.93a20.37,20.37,0,0,1,7.32,10.59h-4.63A15.43,15.43,0,0,0,169.32,35a17.22,17.22,0,0,0-10.06-2.82,15.39,15.39,0,0,0-14.13,8.69A21.22,21.22,0,0,0,143,50.58a21,21,0,0,0,2.12,9.72A15.43,15.43,0,0,0,159.26,69a17.22,17.22,0,0,0,10.06-2.82,15.43,15.43,0,0,0,5.81-7.56h4.63a20.44,20.44,0,0,1-7.32,10.6Q167.25,73,159.32,73a20.42,20.42,0,0,1-10.81-2.88,19.53,19.53,0,0,1-7.38-8,24.92,24.92,0,0,1-2.62-11.59,25.31,25.31,0,0,1,2.62-11.69,19.32,19.32,0,0,1,7.38-8,20.58,20.58,0,0,1,10.81-2.85Q167.26,28.08,172.44,31.93Z"/><path class="cls-1" d="M218.75,30.89a20.48,20.48,0,0,1,7.66,8,24.06,24.06,0,0,1,2.78,11.63,24.17,24.17,0,0,1-2.78,11.65,20.39,20.39,0,0,1-7.66,8,22.52,22.52,0,0,1-22,0,20.3,20.3,0,0,1-7.65-8,24.05,24.05,0,0,1-2.78-11.65,24,24,0,0,1,2.78-11.63,20.39,20.39,0,0,1,7.65-8,22.52,22.52,0,0,1,22,0ZM199.1,34.33A15.85,15.85,0,0,0,193,40.77a20.51,20.51,0,0,0-2.22,9.75A20.51,20.51,0,0,0,193,60.27a15.85,15.85,0,0,0,6.06,6.44,17.77,17.77,0,0,0,17.31,0,15.91,15.91,0,0,0,6.06-6.44,20.51,20.51,0,0,0,2.22-9.75,20.51,20.51,0,0,0-2.22-9.75,15.91,15.91,0,0,0-6.06-6.44,17.77,17.77,0,0,0-17.31,0Z"/><path class="cls-1" d="M270.19,72.58h-4.44L241.63,35.77V72.58h-4.44v-44h4.44l24.12,36.88V28.58h4.44Z"/><path class="cls-1" d="M312.69,72.58h-4.44L284.13,35.77V72.58h-4.44v-44h4.44l24.12,36.88V28.58h4.44Z"/><path class="cls-1" d="M326.62,32.08V48.71h17.19v3.43H326.62V69h19.07v3.62h-23.5V28.52h23.5v3.56Z"/><path class="cls-1" d="M385.81,31.93a20.3,20.3,0,0,1,7.31,10.59H388.5A15.45,15.45,0,0,0,382.68,35a17.2,17.2,0,0,0-10.06-2.82,15.69,15.69,0,0,0-8.28,2.25,15.49,15.49,0,0,0-5.84,6.44,21.22,21.22,0,0,0-2.13,9.75,21,21,0,0,0,2.13,9.72,15.53,15.53,0,0,0,5.84,6.41A15.69,15.69,0,0,0,372.62,69a17.2,17.2,0,0,0,10.06-2.82,15.45,15.45,0,0,0,5.82-7.56h4.62a20.37,20.37,0,0,1-7.31,10.6Q380.62,73,372.69,73a20.45,20.45,0,0,1-10.82-2.88,19.57,19.57,0,0,1-7.37-8,24.92,24.92,0,0,1-2.63-11.59,25.31,25.31,0,0,1,2.63-11.69,19.36,19.36,0,0,1,7.37-8,20.62,20.62,0,0,1,10.82-2.85Q380.63,28.08,385.81,31.93Z"/><path class="cls-1" d="M426.93,28.52v3.56H414.37v40.5H410V32.08H397.5V28.52Z"/><path class="cls-1" d="M437.25,32.08V48.71h17.18v3.43H437.25V69h19.06v3.62h-23.5V28.52h23.5v3.56Z"/><polygon class="cls-1" points="520.81 28.33 520.81 44.9 507.84 44.9 507.84 54.71 520.81 54.71 520.81 72.58 533.06 72.58 533.06 28.33 520.81 28.33"/><path class="cls-1" d="M29.05,58.11A29.08,29.08,0,0,1,8.49,8.49a29.14,29.14,0,0,1,41.12,0L38.26,19.85a13,13,0,1,0,0,18.41L49.61,49.61A28.86,28.86,0,0,1,29.05,58.11ZM63.13,95.64,85.36,73.4A29.08,29.08,0,0,0,44.24,32.28L55.6,43.64A13,13,0,0,1,74,62.05L51.77,84.28a2.63,2.63,0,0,1-3.71,0L30.7,66.92,19.34,78.27,36.71,95.64a18.71,18.71,0,0,0,26.42,0Z"/></svg>