<?xml version="1.0" encoding="utf-8"?>
<!-- Generator: Adobe Illustrator 25.0.0, SVG Export Plug-In . SVG Version: 6.00 Build 0)  -->
<svg version="1.1" id="Layer_1" xmlns="http://www.w3.org/2000/svg" xmlns:xlink="http://www.w3.org/1999/xlink" x="0px" y="0px"
	 viewBox="0 0 60 60" style="enable-background:new 0 0 60 60;" xml:space="preserve">
<style type="text/css">
	.st0{fill:#FFFFFF;}
</style>
<g>
	<path class="st0" d="M19.84,25.7C9.18,25.7,0.5,34.38,0.5,45.04v14.58h2.96V45.04c0-9.03,7.35-16.38,16.38-16.38
		s16.38,7.35,16.38,16.38v14.44h2.96V45.04C39.17,34.38,30.5,25.7,19.84,25.7z"/>
	<path class="st0" d="M19.84,24.04c5.71,0,10.35-4.64,10.35-10.35v-2.96c0-5.71-4.64-10.35-10.35-10.35S9.49,5.03,9.49,10.73v2.96
		C9.49,19.4,14.13,24.04,19.84,24.04z M12.44,10.73c0-4.08,3.31-7.39,7.39-7.39s7.39,3.31,7.39,7.39v2.96
		c0,4.08-3.31,7.39-7.39,7.39s-7.39-3.31-7.39-7.39V10.73z"/>
	<rect x="24.34" y="41.18" class="st0" width="8.82" height="2.96"/>
	<rect x="18.36" y="35.56" class="st0" width="2.96" height="22.12"/>
	<polygon class="st0" points="44.58,21.23 47.53,21.23 47.53,15.34 53.42,15.34 53.42,12.38 47.53,12.38 47.53,6.49 44.58,6.49 
		44.58,12.38 38.69,12.38 38.69,15.34 44.58,15.34 	"/>
	<path class="st0" d="M32.61,0.42V27.3H59.5V0.42H32.61z M56.54,24.35H35.57V3.37h20.97V24.35z"/>
</g>
</svg>
