<?xml version="1.0" encoding="utf-8"?>
<!-- Generator: Adobe Illustrator 25.0.0, SVG Export Plug-In . SVG Version: 6.00 Build 0)  -->
<svg version="1.1" id="Layer_1" xmlns="http://www.w3.org/2000/svg" xmlns:xlink="http://www.w3.org/1999/xlink" x="0px" y="0px"
     viewBox="0 0 60 60" style="enable-background:new 0 0 60 60;" xml:space="preserve">
<style type="text/css">
	.st0{fill:#FFFFFF;}
</style>
    <g>
	<path class="st0" d="M19.95,0.39L16.1,4.24L12.37,0.5L0.5,12.37l3.74,3.74l-3.85,3.85l5.76,5.76L25.72,6.15L19.95,0.39z
		 M6.27,14.07l-1.71-1.7l7.81-7.81l1.71,1.7l-3.9,3.9L6.27,14.07z M4.44,19.96l1.82-1.82l0,0l5.93-5.93l7.75-7.76l1.71,1.71
		L6.15,21.66L4.44,19.96z"/>
        <path class="st0" d="M59.61,40.05l-5.76-5.77l-6.9,6.9L20.63,14.86l-2.03,2.03l26.32,26.32l-1.71,1.71L16.89,18.6l-2.03,2.03
		l26.32,26.32l-6.9,6.9l5.76,5.77l3.85-3.85l3.74,3.74L59.5,47.63l-3.73-3.73L59.61,40.05z M40.04,55.55l-1.71-1.71l4.87-4.87l0,0
		l4.59-4.59l6.05-6.05l1.71,1.71l-1.82,1.82l0,0L41.87,53.73l0,0L40.04,55.55z M55.44,47.63l-7.81,7.81l-1.71-1.71l7.81-7.81
		L55.44,47.63z"/>
        </g>
</svg>