<?xml version="1.0" encoding="utf-8"?>
<!-- Generator: Adobe Illustrator 25.0.0, SVG Export Plug-In . SVG Version: 6.00 Build 0)  -->
<svg version="1.1" id="Layer_1" xmlns="http://www.w3.org/2000/svg" xmlns:xlink="http://www.w3.org/1999/xlink" x="0px" y="0px"
	 viewBox="0 0 60 60" style="enable-background:new 0 0 60 60;" xml:space="preserve">
<style type="text/css">
	.st0{fill:#FFFFFF;}
</style>
<g>
	<path class="st0" d="M19.95,0.39L16.1,4.24L12.37,0.5L0.5,12.37l3.74,3.74l-3.85,3.85l5.76,5.76L25.72,6.15L19.95,0.39z
		 M6.27,14.07l-1.71-1.7l7.81-7.81l1.71,1.7l-3.9,3.9L6.27,14.07z M4.44,19.96l1.82-1.82l0,0l5.93-5.93l7.75-7.76l1.71,1.71
		L6.15,21.66L4.44,19.96z"/>
	<path class="st0" d="M59.61,40.05l-5.76-5.77l-6.9,6.9L20.63,14.86l-2.03,2.03l26.32,26.32l-1.71,1.71L16.89,18.6l-2.03,2.03
		l26.32,26.32l-6.9,6.9l5.76,5.77l3.85-3.85l3.74,3.74L59.5,47.63l-3.73-3.73L59.61,40.05z M40.04,55.55l-1.71-1.71l4.87-4.87l0,0
		l4.59-4.59l6.05-6.05l1.71,1.71l-1.82,1.82l0,0L41.87,53.73l0,0L40.04,55.55z M55.44,47.63l-7.81,7.81l-1.71-1.71l7.81-7.81
		L55.44,47.63z"/>
	<path class="st0" d="M45.81,27.42c7.39,0,13.41-6.02,13.41-13.41c0-7.39-6.01-13.41-13.41-13.41S32.41,6.62,32.41,14.01
		C32.41,21.4,38.42,27.42,45.81,27.42z M45.81,3.32c5.89,0,10.69,4.8,10.69,10.69S51.7,24.7,45.81,24.7S35.12,19.9,35.12,14.01
		S39.92,3.32,45.81,3.32z"/>
	<path class="st0" d="M45.07,23.27h1.46c0.25,0,0.47-0.09,0.64-0.25c0.18-0.17,0.28-0.39,0.28-0.65v-1.48
		c0-0.25-0.09-0.47-0.28-0.65c-0.18-0.16-0.4-0.24-0.64-0.24h-1.46c-0.25,0-0.47,0.09-0.64,0.26c-0.17,0.17-0.26,0.39-0.26,0.64
		v1.48c0,0.25,0.09,0.48,0.26,0.64C44.6,23.18,44.82,23.27,45.07,23.27z"/>
	<path class="st0" d="M45.29,18.44h1.04c0.25,0,0.48-0.09,0.64-0.26c0.17-0.17,0.26-0.39,0.26-0.64V5.65c0-0.25-0.09-0.47-0.26-0.64
		c-0.17-0.17-0.39-0.26-0.64-0.26h-1.04c-0.25,0-0.46,0.08-0.63,0.24c-0.12,0.11-0.26,0.32-0.26,0.66v11.89
		c0,0.25,0.09,0.47,0.25,0.64C44.82,18.35,45.04,18.44,45.29,18.44z"/>
</g>
</svg>
