<?xml version="1.0" encoding="utf-8"?>
<!-- Generator: Adobe Illustrator 25.0.0, SVG Export Plug-In . SVG Version: 6.00 Build 0)  -->
<svg version="1.1" id="Layer_1" xmlns="http://www.w3.org/2000/svg" xmlns:xlink="http://www.w3.org/1999/xlink" x="0px" y="0px"
	 viewBox="0 0 60 60" style="enable-background:new 0 0 60 60;" xml:space="preserve">
<style type="text/css">
	.st0{fill:#FFFFFF;}
</style>
<g>
	<path class="st0" d="M59.18,13.91c0-7.46-6.07-13.52-13.52-13.52S32.14,6.45,32.14,13.91c0,6.95,5.3,12.63,12.05,13.37v28.68
		c0,0.39-0.32,0.71-0.71,0.71h-26.6c-0.39,0-0.71-0.32-0.71-0.71v-9.2H28.3V0.67H0.82v46.09h12.42v9.2c0,2.02,1.64,3.65,3.65,3.65
		h26.6c2.02,0,3.65-1.64,3.65-3.65V27.28C53.89,26.53,59.18,20.85,59.18,13.91z M3.4,3.25h22.32v40.93H3.4V3.25z M45.66,24.48
		c-5.83,0-10.57-4.74-10.57-10.57S39.83,3.33,45.66,3.33s10.57,4.74,10.57,10.57S51.49,24.48,45.66,24.48z"/>
	<path class="st0" d="M45.66,4.29c-4.99,0-9.06,4.06-9.06,9.06h2.95c0-3.37,2.74-6.11,6.11-6.11c3.37,0,6.11,2.74,6.11,6.11h2.95
		C54.72,8.35,50.65,4.29,45.66,4.29z"/>
	<path class="st0" d="M46.18,9.48h-1.04c-0.26,0-0.48,0.09-0.64,0.25c-0.17,0.17-0.26,0.39-0.26,0.64v11.89
		c0,0.25,0.09,0.47,0.26,0.64c0.17,0.17,0.39,0.26,0.64,0.26h1.04c0.25,0,0.47-0.08,0.63-0.24c0.18-0.16,0.27-0.39,0.27-0.66V10.38
		c0-0.25-0.09-0.47-0.26-0.64C46.66,9.57,46.43,9.48,46.18,9.48z"/>
</g>
</svg>
