<?xml version="1.0" encoding="utf-8"?>
<!-- Generator: Adobe Illustrator 25.0.0, SVG Export Plug-In . SVG Version: 6.00 Build 0)  -->
<svg version="1.1" id="Layer_1" xmlns="http://www.w3.org/2000/svg" xmlns:xlink="http://www.w3.org/1999/xlink" x="0px" y="0px"
	 viewBox="0 0 60 60" style="enable-background:new 0 0 60 60;" xml:space="preserve">
<style type="text/css">
	.st0{fill:#FFFFFF;}
</style>
<g>
	<path class="st0" d="M29.6,12.7c-6.64,0-12.04,5.4-12.04,12.04v11.12c0,6.64,5.4,12.04,12.04,12.04c6.64,0,12.04-5.4,12.04-12.04
		V24.74C41.64,18.1,36.24,12.7,29.6,12.7z M38.69,35.86c0,5.01-4.08,9.09-9.09,9.09c-5.01,0-9.09-4.08-9.09-9.09V24.74
		c0-5.01,4.08-9.09,9.09-9.09c5.01,0,9.09,4.08,9.09,9.09V35.86z"/>
	<polygon class="st0" points="23.89,3.41 35.32,3.41 35.32,11.46 38.27,11.46 38.27,0.46 20.93,0.46 20.93,11.46 23.89,11.46 	"/>
	<polygon class="st0" points="35.32,56.47 23.89,56.47 23.89,48.42 20.93,48.42 20.93,59.42 38.27,59.42 38.27,48.42 35.32,48.42 	
		"/>
	<rect x="0.41" y="6.55" class="st0" width="16.79" height="2.95"/>
	<rect x="0.41" y="50.49" class="st0" width="16.79" height="2.95"/>
	<path class="st0" d="M59.42,2.33l-2.21-1.96c-3.47,3.92-8.47,6.17-13.72,6.17h-1.61v2.95h1.61C49.58,9.51,55.39,6.89,59.42,2.33z"
		/>
	<path class="st0" d="M43.66,50.49h-1.61v2.95h1.61c5.24,0,10.24,2.25,13.72,6.17l2.21-1.96C55.55,53.11,49.75,50.49,43.66,50.49z"
		/>
</g>
</svg>
