<?xml version="1.0" encoding="utf-8"?>
<!-- Generator: Adobe Illustrator 25.0.0, SVG Export Plug-In . SVG Version: 6.00 Build 0)  -->
<svg version="1.1" id="Layer_1" xmlns="http://www.w3.org/2000/svg" xmlns:xlink="http://www.w3.org/1999/xlink" x="0px" y="0px"
	 viewBox="0 0 60 60" style="enable-background:new 0 0 60 60;" xml:space="preserve">
<style type="text/css">
	.st0{fill:#FFFFFF;}
</style>
<g>
	<g>
		<path class="st0" d="M45.97,27.37c-7.41,0-13.44-6.03-13.44-13.44S38.56,0.48,45.97,0.48c7.41,0,13.45,6.03,13.45,13.44
			S53.39,27.37,45.97,27.37z M45.97,3.21c-5.91,0-10.72,4.81-10.72,10.72s4.81,10.72,10.72,10.72s10.72-4.81,10.72-10.72
			S51.88,3.21,45.97,3.21z"/>
	</g>
	<g>
		<path class="st0" d="M45.45,18.37h1.05c0.25,0,0.47-0.09,0.64-0.26c0.17-0.17,0.26-0.39,0.26-0.64V5.54
			c0-0.25-0.09-0.47-0.26-0.65c-0.17-0.16-0.39-0.25-0.64-0.25h-1.05c-0.25,0-0.46,0.08-0.63,0.24c-0.12,0.11-0.27,0.32-0.27,0.66
			v11.93c0,0.25,0.09,0.48,0.26,0.64C44.98,18.28,45.2,18.37,45.45,18.37z"/>
		<path class="st0" d="M47.33,20.17c-0.18-0.16-0.4-0.24-0.64-0.24h-1.46c-0.25,0-0.47,0.09-0.64,0.26
			c-0.17,0.17-0.26,0.39-0.26,0.64v1.48c0,0.25,0.09,0.47,0.26,0.64c0.16,0.17,0.39,0.26,0.64,0.26h1.46c0.25,0,0.47-0.09,0.65-0.25
			c0.18-0.17,0.27-0.4,0.27-0.65v-1.48C47.61,20.57,47.52,20.35,47.33,20.17z"/>
	</g>
	<g>
		<path class="st0" d="M19.92,25.7c-10.66,0-19.33,8.67-19.33,19.33v14.58h2.96V45.04c0-9.03,7.35-16.38,16.38-16.38
			S36.3,36.01,36.3,45.04v14.44h2.96V45.04C39.25,34.38,30.58,25.7,19.92,25.7z"/>
		<path class="st0" d="M28.25,40.35c-1.4,0-2.67,0.57-3.58,1.49c-0.92-0.92-2.18-1.49-3.58-1.49c-2.79,0-5.06,2.27-5.06,5.06h2.96
			c0-1.16,0.94-2.1,2.1-2.1c1.16,0,2.1,0.94,2.1,2.1c0,2.79,2.27,5.06,5.06,5.06v-2.96c-1.16,0-2.1-0.94-2.1-2.1
			c0-1.16,0.94-2.1,2.1-2.1c1.16,0,2.1,0.94,2.1,2.1h2.96C33.31,42.62,31.04,40.35,28.25,40.35z"/>
		<path class="st0" d="M19.92,24.04c5.71,0,10.35-4.64,10.35-10.35v-2.96c0-5.71-4.64-10.35-10.35-10.35S9.57,5.03,9.57,10.73v2.96
			C9.57,19.4,14.21,24.04,19.92,24.04z M12.52,10.73c0-4.08,3.31-7.39,7.39-7.39s7.39,3.31,7.39,7.39v2.96
			c0,4.08-3.31,7.39-7.39,7.39s-7.39-3.31-7.39-7.39V10.73z"/>
	</g>
</g>
</svg>
