<?xml version="1.0" encoding="utf-8"?>
<!-- Generator: Adobe Illustrator 25.0.0, SVG Export Plug-In . SVG Version: 6.00 Build 0)  -->
<svg version="1.1" id="Layer_1" xmlns="http://www.w3.org/2000/svg" xmlns:xlink="http://www.w3.org/1999/xlink" x="0px" y="0px"
	 viewBox="0 0 60 60" style="enable-background:new 0 0 60 60;" xml:space="preserve">
<style type="text/css">
	.st0{fill:#FFFFFF;}
</style>
<g>
	<g>
		<path class="st0" d="M22.66,39.45c-0.36,0-0.72-0.09-1.04-0.26c-0.71-0.38-1.16-1.13-1.16-1.94V15.76c0-1.38,1.12-2.5,2.5-2.5
			h34.28c1.41,0,2.56,1.15,2.56,2.56v16.66c0,1.21-0.99,2.2-2.2,2.2H30.56l-6.69,4.39C23.5,39.33,23.08,39.45,22.66,39.45z
			 M23.44,16.25V35.8l5.68-3.73c0.36-0.24,0.78-0.36,1.21-0.36h26.49V16.25H23.44z"/>
	</g>
	<g>
		<g>
			<path class="st0" d="M28.36,29.28c-0.61-0.26-1.07-0.6-1.39-1.01c-0.31-0.42-0.48-0.88-0.5-1.37c0-0.08,0.03-0.15,0.09-0.21
				c0.06-0.06,0.13-0.09,0.21-0.09h1.3c0.11,0,0.19,0.02,0.26,0.07c0.07,0.05,0.13,0.11,0.19,0.2c0.1,0.32,0.31,0.6,0.65,0.81
				c0.34,0.22,0.8,0.33,1.4,0.33c0.67,0,1.17-0.11,1.51-0.33c0.34-0.23,0.51-0.53,0.51-0.92c0-0.26-0.08-0.47-0.26-0.64
				s-0.43-0.32-0.78-0.45c-0.35-0.13-0.87-0.28-1.55-0.47c-1.13-0.27-1.95-0.62-2.48-1.06c-0.52-0.44-0.79-1.07-0.79-1.89
				c0-0.55,0.15-1.05,0.46-1.48c0.31-0.43,0.74-0.78,1.31-1.02c0.57-0.25,1.23-0.37,1.98-0.37c0.79,0,1.48,0.14,2.05,0.42
				c0.58,0.28,1.02,0.62,1.32,1.04c0.3,0.41,0.46,0.83,0.48,1.24c0,0.08-0.03,0.15-0.09,0.21c-0.06,0.06-0.13,0.09-0.21,0.09h-1.36
				c-0.21,0-0.35-0.09-0.43-0.26c-0.05-0.31-0.23-0.56-0.56-0.76c-0.32-0.2-0.72-0.31-1.2-0.31c-0.53,0-0.94,0.1-1.24,0.3
				c-0.3,0.2-0.45,0.49-0.45,0.87c0,0.26,0.08,0.47,0.23,0.64s0.39,0.32,0.72,0.45c0.32,0.13,0.8,0.27,1.42,0.44
				c0.85,0.19,1.52,0.41,2.03,0.64c0.5,0.24,0.87,0.54,1.11,0.9c0.24,0.36,0.36,0.83,0.36,1.39c0,0.62-0.17,1.16-0.51,1.61
				c-0.34,0.45-0.81,0.8-1.43,1.04c-0.61,0.24-1.33,0.36-2.14,0.36C29.71,29.66,28.97,29.54,28.36,29.28z"/>
		</g>
		<g>
			<path class="st0" d="M37.09,28.68c-0.72-0.66-1.11-1.64-1.14-2.93c-0.01-0.28-0.01-0.68-0.01-1.22c0-0.54,0-0.96,0.01-1.23
				c0.04-1.27,0.43-2.24,1.17-2.92c0.74-0.68,1.75-1.01,3.02-1.01c1.26,0,2.26,0.34,3.01,1.01c0.75,0.68,1.14,1.65,1.18,2.92
				c0.02,0.55,0.03,0.96,0.03,1.23c0,0.26-0.01,0.66-0.03,1.22c-0.04,1.3-0.42,2.27-1.15,2.93c-0.73,0.66-1.74,0.99-3.04,0.99
				C38.83,29.66,37.81,29.34,37.09,28.68z M41.65,27.43c0.37-0.38,0.57-0.97,0.6-1.76c0.02-0.57,0.03-0.96,0.03-1.16
				c0-0.22-0.01-0.61-0.03-1.16c-0.03-0.78-0.23-1.37-0.62-1.75c-0.38-0.39-0.88-0.58-1.5-0.58c-0.63,0-1.14,0.19-1.52,0.58
				c-0.38,0.39-0.58,0.97-0.6,1.75C38.01,23.63,38,24.02,38,24.51c0,0.49,0.01,0.87,0.01,1.16c0.02,0.78,0.22,1.37,0.59,1.75
				C38.99,27.81,39.5,28,40.14,28C40.78,28,41.28,27.81,41.65,27.43z"/>
		</g>
		<g>
			<path class="st0" d="M47.5,29.28c-0.61-0.26-1.07-0.6-1.39-1.01c-0.31-0.42-0.48-0.88-0.5-1.37c0-0.08,0.03-0.15,0.09-0.21
				c0.06-0.06,0.13-0.09,0.21-0.09h1.3c0.11,0,0.19,0.02,0.26,0.07c0.07,0.05,0.13,0.11,0.19,0.2c0.1,0.32,0.31,0.6,0.65,0.81
				c0.34,0.22,0.8,0.33,1.4,0.33c0.67,0,1.17-0.11,1.51-0.33c0.34-0.23,0.51-0.53,0.51-0.92c0-0.26-0.08-0.47-0.26-0.64
				s-0.43-0.32-0.78-0.45c-0.35-0.13-0.87-0.28-1.55-0.47c-1.13-0.27-1.95-0.62-2.48-1.06c-0.52-0.44-0.79-1.07-0.79-1.89
				c0-0.55,0.15-1.05,0.46-1.48c0.31-0.43,0.74-0.78,1.31-1.02c0.57-0.25,1.23-0.37,1.98-0.37c0.79,0,1.48,0.14,2.05,0.42
				s1.02,0.62,1.32,1.04c0.3,0.41,0.46,0.83,0.48,1.24c0,0.08-0.03,0.15-0.09,0.21c-0.06,0.06-0.13,0.09-0.21,0.09h-1.36
				c-0.21,0-0.35-0.09-0.43-0.26c-0.05-0.31-0.23-0.56-0.56-0.76c-0.32-0.2-0.72-0.31-1.2-0.31c-0.53,0-0.94,0.1-1.24,0.3
				c-0.3,0.2-0.45,0.49-0.45,0.87c0,0.26,0.08,0.47,0.23,0.64c0.15,0.17,0.39,0.32,0.72,0.45s0.8,0.27,1.42,0.44
				c0.85,0.19,1.52,0.41,2.03,0.64c0.5,0.24,0.87,0.54,1.11,0.9c0.24,0.36,0.36,0.83,0.36,1.39c0,0.62-0.17,1.16-0.51,1.61
				c-0.34,0.45-0.81,0.8-1.43,1.04c-0.61,0.24-1.33,0.36-2.14,0.36C48.85,29.66,48.11,29.54,47.5,29.28z"/>
		</g>
	</g>
	<path class="st0" d="M36.76,10.28V6.06c0-3.13-2.55-5.68-5.68-5.68H5.88c-3.13,0-5.68,2.55-5.68,5.68v47.87
		c0,3.13,2.55,5.68,5.68,5.68h25.2c3.13,0,5.68-2.55,5.68-5.68V37.68h-2.98v10.76H3.19V6.06c0-1.49,1.21-2.7,2.7-2.7h25.2
		c1.49,0,2.7,1.21,2.7,2.7v4.22H36.76z M33.78,51.42v2.51c0,1.49-1.21,2.7-2.7,2.7H5.88c-1.49,0-2.7-1.21-2.7-2.7v-2.51H33.78z"/>
</g>
</svg>
