<?xml version="1.0" encoding="utf-8"?>
<!-- Generator: Adobe Illustrator 25.0.0, SVG Export Plug-In . SVG Version: 6.00 Build 0)  -->
<svg version="1.1" id="Layer_1" xmlns="http://www.w3.org/2000/svg" xmlns:xlink="http://www.w3.org/1999/xlink" x="0px" y="0px"
	 viewBox="0 0 60 60" style="enable-background:new 0 0 60 60;" xml:space="preserve">
<style type="text/css">
	.st0{fill:#FFFFFF;}
</style>
<g>
	<g>
		<polygon class="st0" points="59.57,59.61 0.43,59.61 0.43,5.29 8.81,5.29 8.81,8.26 3.39,8.26 3.39,56.65 56.61,56.65 56.61,8.26 
			51.24,8.26 51.24,5.29 59.57,5.29 		"/>
	</g>
	<g>
		<path class="st0" d="M48.29,23.78h-36.5V0.39h36.5V23.78z M14.76,20.82h30.56V3.35H14.76V20.82z"/>
	</g>
	<g>
		<g>
			<path class="st0" d="M20.91,17.47c-0.07-0.07-0.11-0.16-0.11-0.27V6.98c0-0.12,0.03-0.21,0.1-0.28c0.07-0.07,0.16-0.11,0.28-0.11
				h1.41c0.12,0,0.21,0.04,0.28,0.11c0.07,0.07,0.11,0.17,0.11,0.28v3.67l3.5-3.78c0.16-0.19,0.36-0.28,0.61-0.28h1.6
				c0.08,0,0.16,0.03,0.23,0.1c0.07,0.06,0.1,0.14,0.1,0.23c0,0.07-0.03,0.14-0.08,0.19l-4.27,4.74l4.58,5.2
				c0.04,0.07,0.06,0.14,0.06,0.2c0,0.1-0.03,0.17-0.1,0.23c-0.06,0.06-0.14,0.1-0.22,0.1h-1.65c-0.22,0-0.38-0.04-0.47-0.13
				c-0.09-0.09-0.14-0.14-0.16-0.15l-3.75-4.15v4.05c0,0.1-0.03,0.19-0.11,0.27c-0.08,0.07-0.17,0.11-0.28,0.11h-1.41
				C21.07,17.58,20.99,17.54,20.91,17.47z"/>
		</g>
		<g>
			<path class="st0" d="M31.1,16.63c-0.8-0.75-1.23-1.78-1.28-3.11c-0.01-0.3-0.01-0.79-0.01-1.46s0-1.16,0.01-1.46
				c0.04-1.3,0.47-2.32,1.29-3.05c0.82-0.74,1.94-1.11,3.36-1.11c0.97,0,1.79,0.17,2.49,0.5c0.7,0.33,1.22,0.74,1.58,1.22
				c0.36,0.49,0.55,0.97,0.57,1.44c0,0.09-0.03,0.17-0.09,0.23c-0.06,0.06-0.15,0.09-0.25,0.09H37.1c-0.1,0-0.18-0.02-0.23-0.06
				c-0.05-0.04-0.1-0.11-0.14-0.21c-0.14-0.39-0.4-0.72-0.77-0.99c-0.37-0.27-0.86-0.41-1.49-0.41c-0.73,0-1.3,0.2-1.72,0.59
				c-0.41,0.39-0.63,1-0.65,1.83c-0.01,0.3-0.01,0.76-0.01,1.38c0,0.61,0.01,1.07,0.01,1.38c0.02,0.85,0.24,1.47,0.66,1.88
				c0.42,0.4,0.99,0.61,1.73,0.61c0.74,0,1.34-0.2,1.79-0.6c0.45-0.4,0.68-0.99,0.68-1.79v-0.49h-1.92c-0.1,0-0.19-0.03-0.27-0.11
				c-0.07-0.08-0.11-0.16-0.11-0.27V11.8c0-0.11,0.04-0.19,0.11-0.27c0.08-0.07,0.16-0.11,0.27-0.11h3.77
				c0.12,0,0.21,0.03,0.28,0.11c0.07,0.08,0.11,0.16,0.11,0.27v1.66c0,0.87-0.19,1.62-0.58,2.27c-0.39,0.64-0.94,1.14-1.65,1.48
				c-0.71,0.35-1.55,0.52-2.5,0.52C33.02,17.74,31.9,17.37,31.1,16.63z"/>
		</g>
	</g>
</g>
</svg>
