<?xml version="1.0" encoding="utf-8"?>
<!-- Generator: Adobe Illustrator 25.0.0, SVG Export Plug-In . SVG Version: 6.00 Build 0)  -->
<svg version="1.1" id="Layer_1" xmlns="http://www.w3.org/2000/svg" xmlns:xlink="http://www.w3.org/1999/xlink" x="0px" y="0px"
	 viewBox="0 0 60 60" style="enable-background:new 0 0 60 60;" xml:space="preserve">
<style type="text/css">
	.st0{fill:#FFFFFF;}
</style>
<g>
	<g>
		<path class="st0" d="M30,59.61c-13.21,0-24.94-8.87-28.51-21.58l2.86-0.81C7.56,48.67,18.11,56.65,30,56.65
			c13.38,0,24.5-9.92,26.37-22.79l-2.93,2.93l-2.1-2.1l5.74-5.74c0.42-0.43,1.07-0.55,1.62-0.32c0.55,0.23,0.92,0.77,0.92,1.37
			C59.61,46.33,46.33,59.61,30,59.61z"/>
	</g>
	<g>
		<path class="st0" d="M1.87,31.48c-0.19,0-0.39-0.04-0.57-0.11C0.75,31.14,0.39,30.6,0.39,30C0.39,13.67,13.67,0.39,30,0.39
			c13.21,0,24.94,8.87,28.51,21.58l-2.86,0.81C52.44,11.33,41.89,3.35,30,3.35c-13.38,0-24.5,9.92-26.37,22.79l2.93-2.93l2.1,2.1
			l-5.74,5.74C2.63,31.33,2.25,31.48,1.87,31.48z"/>
	</g>
	<g>
		<path class="st0" d="M41.07,43.19H18.93c-4.61,0-8.35-3.75-8.35-8.35s3.75-8.35,8.35-8.35v2.97c-2.97,0-5.39,2.42-5.39,5.39
			s2.42,5.39,5.39,5.39h22.14c2.97,0,5.39-2.42,5.39-5.39s-2.42-5.39-5.39-5.39h-2.09c-0.82,0-1.48-0.66-1.48-1.48v-2.81
			c0-2.97-2.42-5.39-5.39-5.39s-5.39,2.42-5.39,5.39v2.81h-2.97v-2.81c0-4.61,3.75-8.35,8.35-8.35s8.35,3.75,8.35,8.35v1.32h0.61
			c4.61,0,8.35,3.75,8.35,8.35S45.68,43.19,41.07,43.19z"/>
	</g>
</g>
</svg>
