<?xml version="1.0" encoding="utf-8"?>
<!-- Generator: Adobe Illustrator 25.0.0, SVG Export Plug-In . SVG Version: 6.00 Build 0)  -->
<svg version="1.1" id="Layer_1" xmlns="http://www.w3.org/2000/svg" xmlns:xlink="http://www.w3.org/1999/xlink" x="0px" y="0px"
	 viewBox="0 0 60 60" style="enable-background:new 0 0 60 60;" xml:space="preserve">
<style type="text/css">
	.st0{fill:#FFFFFF;}
</style>
<g>
	<g>
		<path class="st0" d="M36.1,44.48H24.25v-8.19h-8.2V24.44h8.2v-8.19H36.1v8.19h8.19v11.85H36.1V44.48z M27.21,41.52h5.92v-8.19
			h8.19V27.4h-8.19v-8.19h-5.92v8.19h-8.2v5.92h8.2V41.52z"/>
	</g>
	<g>
		<polygon class="st0" points="3.33,59.61 0.36,59.61 0.36,16.25 7.1,16.25 7.1,19.21 3.33,19.21 		"/>
	</g>
	<g>
		<polygon class="st0" points="59.64,59.61 56.67,59.61 56.67,19.21 52.9,19.21 52.9,16.25 59.64,16.25 		"/>
	</g>
	<g>
		<path class="st0" d="M51.11,59.61H8.89V0.39h42.22V59.61z M11.85,56.65h36.29V3.35H11.85V56.65z"/>
	</g>
</g>
</svg>
