<?xml version="1.0" encoding="utf-8"?>
<!-- Generator: Adobe Illustrator 25.0.0, SVG Export Plug-In . SVG Version: 6.00 Build 0)  -->
<svg version="1.1" id="Layer_1" xmlns="http://www.w3.org/2000/svg" xmlns:xlink="http://www.w3.org/1999/xlink" x="0px" y="0px"
     viewBox="0 0 60 60" style="enable-background:new 0 0 60 60;" xml:space="preserve">
<style type="text/css">
	.st0{fill:#FFFFFF;}
</style>
    <g>
	<path class="st0" d="M19.34,25.7C8.67,25.7,0,34.38,0,45.04v14.58h2.96V45.04c0-9.03,7.35-16.38,16.38-16.38
		c9.03,0,16.38,7.35,16.38,16.38v14.44h2.96V45.04C38.67,34.38,30,25.7,19.34,25.7z"/>
        <path class="st0" d="M19.34,24.04c5.71,0,10.35-4.64,10.35-10.35v-2.96c0-5.71-4.64-10.35-10.35-10.35S8.99,5.03,8.99,10.73v2.96
		C8.99,19.4,13.63,24.04,19.34,24.04z M11.94,10.73c0-4.08,3.32-7.39,7.39-7.39c4.08,0,7.39,3.32,7.39,7.39v2.96
		c0,4.08-3.32,7.39-7.39,7.39c-4.08,0-7.39-3.32-7.39-7.39V10.73z"/>
        <rect x="33.56" y="8.47" class="st0" width="25.54" height="2.96"/>
        <rect x="33.56" y="0.39" class="st0" width="25.54" height="2.96"/>
        <rect x="33.56" y="16.55" class="st0" width="25.54" height="2.96"/>
</g>
</svg>
