<?xml version="1.0" encoding="utf-8"?>
<!-- Generator: Adobe Illustrator 25.0.0, SVG Export Plug-In . SVG Version: 6.00 Build 0)  -->
<svg version="1.1" id="Layer_1" xmlns="http://www.w3.org/2000/svg" xmlns:xlink="http://www.w3.org/1999/xlink" x="0px" y="0px"
	 viewBox="0 0 60 60" style="enable-background:new 0 0 60 60;" xml:space="preserve">
<style type="text/css">
	.st0{fill:#FFFFFF;}
</style>
<g>
	<g>
		<path class="st0" d="M19.66,23.69c0.35-0.36,0.74-0.66,1.15-0.93c0.92-4.07,4.55-7.12,8.89-7.12c5.03,0,9.13,4.1,9.13,9.13v3.1
			l2.96-3.18c-0.05-6.63-5.45-12.02-12.09-12.02c-6.67,0-12.1,5.43-12.1,12.1v1.14L19.66,23.69z"/>
		<path class="st0" d="M40.58,36.61c-0.58,0.6-1.27,1.07-2.01,1.41c-0.94,4.03-4.55,7.06-8.87,7.06c-5.04,0-9.13-4.1-9.13-9.13
			v-2.59l-2.84,3.05c-0.02,0.02-0.05,0.04-0.08,0.07c0.28,6.42,5.55,11.57,12.05,11.57c6.67,0,12.1-5.43,12.1-12.1V35.3L40.58,36.61
			z"/>
	</g>
	<g>
		<polygon class="st0" points="38.41,11.43 35.44,11.43 35.44,3.34 23.96,3.34 23.96,11.43 20.99,11.43 20.99,0.38 38.41,0.38 		"/>
	</g>
	<g>
		<polygon class="st0" points="38.41,59.62 20.99,59.62 20.99,48.57 23.96,48.57 23.96,56.66 35.44,56.66 35.44,48.57 38.41,48.57 
					"/>
	</g>
	<g>
		<path class="st0" d="M57.5,36.66l-9.08-9.44c-0.25-0.26-0.59-0.4-0.95-0.4h0c-0.36,0-0.69,0.14-0.94,0.4l-7.55,7.85
			c-1.64,1.69-4.53,1.69-6.17,0l-7.5-7.79c-0.25-0.26-0.59-0.4-0.95-0.4h0c-0.36,0-0.69,0.14-0.94,0.4l-7.3,7.59
			c-0.81,0.85-1.91,1.31-3.08,1.31c0,0,0,0,0,0c-1.17,0-2.27-0.47-3.08-1.32l-9.59-9.96l2.14-2.06l9.59,9.96
			c0.25,0.26,0.59,0.4,0.94,0.4h0c0.36,0,0.7-0.14,0.95-0.4l7.3-7.58c0.81-0.85,1.91-1.31,3.08-1.31c0,0,0,0,0,0
			c1.17,0,2.27,0.47,3.08,1.31l7.5,7.79c0.5,0.52,1.39,0.52,1.89,0l7.55-7.85c0.81-0.85,1.91-1.31,3.08-1.31c0,0,0,0,0,0
			c1.17,0,2.27,0.46,3.08,1.31l9.08,9.44L57.5,36.66z"/>
	</g>
</g>
</svg>
