<?xml version="1.0" encoding="utf-8"?>
<!-- Generator: Adobe Illustrator 25.0.0, SVG Export Plug-In . SVG Version: 6.00 Build 0)  -->
<svg version="1.1" id="Layer_1" xmlns="http://www.w3.org/2000/svg" xmlns:xlink="http://www.w3.org/1999/xlink" x="0px" y="0px"
	 viewBox="0 0 60 60" style="enable-background:new 0 0 60 60;" xml:space="preserve">
<style type="text/css">
	.st0{fill:#FFFFFF;}
</style>
<g>
	<rect x="16.39" y="8.49" class="st0" width="35.51" height="2.97"/>
	<rect x="16.39" y="16.19" class="st0" width="35.51" height="2.97"/>
	<rect x="7.88" y="44.19" class="st0" width="19.39" height="3.16"/>
	<rect x="7.88" y="39.27" class="st0" width="19.39" height="3.16"/>
	<rect x="7.88" y="49.12" class="st0" width="19.39" height="3.16"/>
	<polygon class="st0" points="35.64,39.36 35.64,44.29 30.71,44.29 30.71,47.25 35.64,47.25 35.64,52.19 38.61,52.19 38.61,47.25 
		43.54,47.25 43.54,44.29 38.61,44.29 38.61,39.36 	"/>
	<rect x="16.39" y="25.1" class="st0" width="7.29" height="2.97"/>
	<polygon class="st0" points="9.12,0.39 9.12,28.07 14.17,28.07 14.17,25.1 12.09,25.1 12.09,3.35 56.64,3.35 56.64,25.1 
		25.91,25.1 25.91,28.07 59.61,28.07 59.61,0.39 	"/>
	<polygon class="st0" points="0.39,59.61 5.66,59.61 5.66,56.65 3.36,56.65 3.36,34.9 47.91,34.9 47.91,56.65 17.4,56.65 
		17.4,59.61 50.88,59.61 50.88,31.93 0.39,31.93 	"/>
	<rect x="7.88" y="56.65" class="st0" width="7.29" height="2.97"/>
</g>
</svg>
