<?xml version="1.0" encoding="utf-8"?>
<!-- Generator: Adobe Illustrator 25.0.0, SVG Export Plug-In . SVG Version: 6.00 Build 0)  -->
<svg version="1.1" id="Layer_1" xmlns="http://www.w3.org/2000/svg" xmlns:xlink="http://www.w3.org/1999/xlink" x="0px" y="0px"
	 viewBox="0 0 60 60" style="enable-background:new 0 0 60 60;" xml:space="preserve">
<style type="text/css">
	.st0{fill:#FFFFFF;}
</style>
<g>
	<path class="st0" d="M59.61,15.92C59.61,7.35,52.63,0.39,44.07,0.39c-6.24,0-11.6,3.72-14.07,9.04c-2.48-5.31-7.83-9.01-14.06-9.01
		c-8.57,0-15.55,6.97-15.55,15.55v3.96c0,6.16,2.25,12.09,6.34,16.7l18.46,20.82c1.23,1.39,3,2.18,4.85,2.18c0,0,0,0,0.01,0
		c1.85,0,3.62-0.8,4.85-2.19l2.76-3.12c-0.86-0.51-1.67-1.09-2.42-1.74l-2.56,2.89c-0.67,0.75-1.63,1.19-2.63,1.19h0
		c-1.01,0-1.97-0.43-2.63-1.18L8.94,34.65c-3.61-4.07-5.59-9.3-5.59-14.74v-3.96c0-6.94,5.64-12.59,12.59-12.59
		s12.59,5.65,12.59,12.59h2.96c0-0.01,0-0.02,0-0.03h0c0-6.94,5.64-12.59,12.59-12.59s12.59,5.65,12.59,12.59v4.01
		c0,2.28-0.37,4.53-1.05,6.67c0.88,0.62,1.69,1.33,2.42,2.11c1.04-2.79,1.59-5.75,1.59-8.78L59.61,15.92L59.61,15.92z"/>
	<path class="st0" d="M46.03,26.49c-7.49,0-13.58,6.09-13.58,13.58s6.09,13.58,13.58,13.58s13.58-6.09,13.58-13.58
		S53.52,26.49,46.03,26.49z M46.03,50.69c-5.86,0-10.62-4.76-10.62-10.62s4.76-10.62,10.62-10.62s10.62,4.76,10.62,10.62
		S51.89,50.69,46.03,50.69z"/>
	<path class="st0" d="M45.51,44.52h1.05c0.25,0,0.48-0.09,0.64-0.26c0.17-0.17,0.26-0.39,0.26-0.65V31.68
		c0-0.25-0.09-0.48-0.26-0.64c-0.17-0.17-0.39-0.26-0.64-0.26h-1.05c-0.25,0-0.47,0.08-0.63,0.23c-0.12,0.11-0.27,0.32-0.27,0.67
		v11.94c0,0.25,0.09,0.48,0.26,0.64C45.03,44.43,45.25,44.52,45.51,44.52z"/>
	<path class="st0" d="M46.75,46.08h-1.46c-0.25,0-0.47,0.09-0.64,0.26c-0.17,0.17-0.26,0.39-0.26,0.64v1.49
		c0,0.25,0.09,0.48,0.26,0.64s0.39,0.26,0.64,0.26h1.46c0.25,0,0.47-0.09,0.65-0.25c0.18-0.17,0.28-0.39,0.28-0.65v-1.49
		c0-0.25-0.1-0.48-0.28-0.65C47.22,46.17,47,46.08,46.75,46.08z"/>
</g>
</svg>
