<?xml version="1.0" encoding="utf-8"?>
<!-- Generator: Adobe Illustrator 25.0.0, SVG Export Plug-In . SVG Version: 6.00 Build 0)  -->
<svg version="1.1" id="Layer_1" xmlns="http://www.w3.org/2000/svg" xmlns:xlink="http://www.w3.org/1999/xlink" x="0px" y="0px"
	 viewBox="0 0 60 60" style="enable-background:new 0 0 60 60;" xml:space="preserve">
<style type="text/css">
	.st0{fill:#FFFFFF;}
</style>
<g>
	<path class="st0" d="M55.15,3.39H36.04c-0.95-1.78-2.81-3-4.96-3H6.05c-3.11,0-5.64,2.53-5.64,5.64v47.95
		c0,3.11,2.53,5.64,5.64,5.64h25.03c3.11,0,5.64-2.53,5.64-5.64v-8.83h18.43c2.45,0,4.44-1.99,4.44-4.44V7.83
		C59.6,5.38,57.6,3.39,55.15,3.39z M31.08,56.65H6.05c-1.48,0-2.68-1.2-2.68-2.68v-2.5h30.39v2.5
		C33.75,55.45,32.55,56.65,31.08,56.65z M33.75,48.51H3.37V6.03c0-1.48,1.2-2.68,2.68-2.68h25.03c0.1,0,0.18,0.03,0.27,0.04h-6.38
		c-2.45,0-4.44,1.99-4.44,4.44V40.7c0,2.45,1.99,4.44,4.44,4.44h8.79V48.51z M56.63,40.7c0,0.82-0.67,1.48-1.48,1.48H24.97
		c-0.82,0-1.48-0.67-1.48-1.48V7.83c0-0.82,0.67-1.48,1.48-1.48h30.18c0.82,0,1.48,0.67,1.48,1.48V40.7z"/>
	<path class="st0" d="M41.89,21.94c2.54-0.79,4.39-3.13,4.39-5.92v-1.58c0-3.43-2.79-6.22-6.22-6.22c-3.43,0-6.23,2.79-6.23,6.22
		v1.58c0,2.79,1.86,5.13,4.4,5.92c-5.21,0.88-9.2,5.39-9.2,10.85v7.8h2.96v-7.8c0-4.45,3.62-8.07,8.07-8.07
		c4.45,0,8.07,3.62,8.07,8.07v7.72h2.96v-7.72C51.09,27.33,47.1,22.82,41.89,21.94z M36.8,16.02v-1.58c0-1.8,1.46-3.26,3.26-3.26
		c1.8,0,3.26,1.46,3.26,3.26v1.58c0,1.8-1.46,3.26-3.26,3.26C38.26,19.28,36.8,17.82,36.8,16.02z"/>
	<path class="st0" d="M44.52,29.59c-0.73,0-1.36,0.28-1.92,0.67c-0.55-0.39-1.19-0.67-1.92-0.67c-1.87,0-3.4,1.53-3.4,3.4h2.96
		c0-0.47,0.87-0.47,0.87,0c0,1.87,1.53,3.4,3.4,3.4v-2.96c-0.24,0-0.44-0.2-0.44-0.43c0-0.47,0.87-0.47,0.87,0h2.96
		C47.91,31.11,46.39,29.59,44.52,29.59z"/>
</g>
</svg>
