<?xml version="1.0" encoding="utf-8"?>
<!-- Generator: Adobe Illustrator 25.0.0, SVG Export Plug-In . SVG Version: 6.00 Build 0)  -->
<svg version="1.1" id="Layer_1" xmlns="http://www.w3.org/2000/svg" xmlns:xlink="http://www.w3.org/1999/xlink" x="0px" y="0px"
	 viewBox="0 0 60 60" style="enable-background:new 0 0 60 60;" xml:space="preserve">
<style type="text/css">
	.st0{fill:#FFFFFF;}
</style>
<g>
	<g>
		<path class="st0" d="M2.83,59.61c-0.42,0-0.83-0.1-1.21-0.31c-0.82-0.45-1.34-1.3-1.34-2.24V3.4c0-1.66,1.35-3.02,3.02-3.02h53.3
			c1.72,0,3.12,1.4,3.12,3.12v45.96c0,1.4-1.14,2.55-2.55,2.55H15.08L4.23,59.2C3.8,59.48,3.32,59.61,2.83,59.61z M2.68,56.83
			C2.68,56.83,2.68,56.83,2.68,56.83L2.68,56.83z M3.3,3.22L3.11,56.55l10.57-6.94c0.42-0.27,0.9-0.42,1.4-0.42h41.81V3.51
			c0-0.16-0.13-0.29-0.29-0.29H3.3z"/>
	</g>
	<g>
		<g>
			<path class="st0" d="M11.44,33.43c-0.93-0.39-1.63-0.91-2.11-1.54c-0.48-0.64-0.73-1.34-0.76-2.09c0-0.12,0.04-0.22,0.13-0.32
				c0.08-0.09,0.19-0.14,0.32-0.14h1.98c0.16,0,0.29,0.04,0.39,0.11c0.1,0.07,0.19,0.17,0.28,0.3c0.14,0.49,0.47,0.91,0.99,1.24
				c0.51,0.33,1.22,0.5,2.12,0.5c1.01,0,1.78-0.17,2.29-0.51c0.51-0.34,0.77-0.81,0.77-1.4c0-0.39-0.13-0.72-0.39-0.98
				s-0.66-0.49-1.18-0.69c-0.53-0.19-1.32-0.43-2.36-0.71c-1.71-0.41-2.97-0.94-3.76-1.61c-0.8-0.67-1.19-1.62-1.19-2.87
				c0-0.84,0.23-1.59,0.69-2.25c0.47-0.66,1.13-1.18,1.99-1.56c0.86-0.38,1.87-0.57,3.01-0.57c1.2,0,2.24,0.21,3.12,0.63
				c0.88,0.42,1.55,0.95,2,1.58c0.46,0.63,0.7,1.26,0.73,1.88c0,0.12-0.04,0.22-0.13,0.32c-0.08,0.09-0.19,0.14-0.33,0.14h-2.06
				c-0.32,0-0.54-0.13-0.65-0.39c-0.07-0.47-0.36-0.85-0.85-1.16c-0.49-0.31-1.1-0.47-1.83-0.47c-0.8,0-1.42,0.15-1.88,0.46
				c-0.46,0.3-0.69,0.75-0.69,1.33c0,0.39,0.12,0.72,0.35,0.98s0.59,0.49,1.09,0.69c0.49,0.19,1.21,0.42,2.15,0.66
				c1.29,0.29,2.32,0.62,3.08,0.98c0.76,0.36,1.32,0.82,1.68,1.37c0.36,0.55,0.54,1.26,0.54,2.11c0,0.94-0.26,1.76-0.77,2.44
				c-0.51,0.69-1.24,1.22-2.17,1.58c-0.93,0.36-2.02,0.54-3.25,0.54C13.49,34.02,12.37,33.82,11.44,33.43z"/>
		</g>
		<g>
			<path class="st0" d="M24.71,32.52c-1.1-1-1.68-2.49-1.74-4.46c-0.02-0.42-0.02-1.04-0.02-1.85c0-0.83,0.01-1.45,0.02-1.87
				c0.06-1.93,0.65-3.41,1.78-4.44c1.13-1.03,2.66-1.54,4.59-1.54c1.91,0,3.44,0.52,4.58,1.54c1.14,1.03,1.74,2.51,1.79,4.44
				c0.03,0.84,0.04,1.46,0.04,1.87c0,0.39-0.01,1.01-0.04,1.85c-0.06,1.97-0.64,3.46-1.75,4.46c-1.11,1-2.65,1.5-4.62,1.5
				C27.35,34.02,25.81,33.52,24.71,32.52z M31.65,30.62c0.57-0.58,0.87-1.47,0.91-2.68c0.03-0.87,0.04-1.46,0.04-1.76
				c0-0.33-0.02-0.92-0.04-1.76c-0.04-1.19-0.36-2.08-0.94-2.66c-0.58-0.59-1.34-0.88-2.28-0.88c-0.96,0-1.73,0.29-2.31,0.88
				c-0.58,0.59-0.89,1.48-0.91,2.66c-0.01,0.42-0.02,1.01-0.02,1.76c0,0.74,0.01,1.33,0.02,1.76c0.03,1.19,0.33,2.08,0.9,2.66
				c0.58,0.59,1.35,0.88,2.32,0.88C30.31,31.49,31.08,31.2,31.65,30.62z"/>
		</g>
		<g>
			<path class="st0" d="M40.54,33.43c-0.93-0.39-1.63-0.91-2.11-1.54c-0.48-0.64-0.73-1.34-0.76-2.09c0-0.12,0.04-0.22,0.13-0.32
				c0.08-0.09,0.19-0.14,0.32-0.14h1.98c0.16,0,0.29,0.04,0.39,0.11c0.1,0.07,0.19,0.17,0.28,0.3c0.14,0.49,0.47,0.91,0.99,1.24
				c0.51,0.33,1.22,0.5,2.12,0.5c1.01,0,1.78-0.17,2.29-0.51c0.51-0.34,0.77-0.81,0.77-1.4c0-0.39-0.13-0.72-0.39-0.98
				c-0.26-0.26-0.66-0.49-1.18-0.69c-0.53-0.19-1.32-0.43-2.36-0.71c-1.71-0.41-2.97-0.94-3.76-1.61c-0.8-0.67-1.19-1.62-1.19-2.87
				c0-0.84,0.23-1.59,0.69-2.25s1.13-1.18,1.99-1.56c0.86-0.38,1.87-0.57,3.01-0.57c1.2,0,2.24,0.21,3.12,0.63
				c0.88,0.42,1.55,0.95,2,1.58c0.46,0.63,0.7,1.26,0.73,1.88c0,0.12-0.04,0.22-0.13,0.32c-0.08,0.09-0.19,0.14-0.33,0.14h-2.06
				c-0.32,0-0.54-0.13-0.65-0.39c-0.07-0.47-0.36-0.85-0.85-1.16c-0.49-0.31-1.1-0.47-1.83-0.47c-0.8,0-1.42,0.15-1.88,0.46
				c-0.46,0.3-0.69,0.75-0.69,1.33c0,0.39,0.12,0.72,0.35,0.98c0.23,0.26,0.59,0.49,1.09,0.69c0.49,0.19,1.21,0.42,2.15,0.66
				c1.29,0.29,2.32,0.62,3.08,0.98c0.76,0.36,1.32,0.82,1.68,1.37c0.36,0.55,0.54,1.26,0.54,2.11c0,0.94-0.26,1.76-0.77,2.44
				c-0.51,0.69-1.24,1.22-2.17,1.58c-0.93,0.36-2.02,0.54-3.25,0.54C42.59,34.02,41.47,33.82,40.54,33.43z"/>
		</g>
	</g>
</g>
</svg>
