<svg id="Layer_1" data-name="Layer 1" xmlns="http://www.w3.org/2000/svg" viewBox="0 0 60 60"><defs><style>.cls-1{fill:#0ec5db;}</style></defs><path class="cls-1" d="M55.15,3.39H36a5.63,5.63,0,0,0-5-3h-25A5.65,5.65,0,0,0,.4,6V54a5.65,5.65,0,0,0,5.65,5.64h25A5.64,5.64,0,0,0,36.72,54V45.15H55.15A4.45,4.45,0,0,0,59.6,40.7V7.83A4.45,4.45,0,0,0,55.15,3.39ZM31.08,56.65h-25A2.68,2.68,0,0,1,3.37,54V51.48H33.75V54A2.68,2.68,0,0,1,31.08,56.65Zm2.67-8.14H3.37V6A2.68,2.68,0,0,1,6.05,3.35h25a2.51,2.51,0,0,1,.27,0H25a4.45,4.45,0,0,0-4.45,4.44V40.7A4.45,4.45,0,0,0,25,45.15h8.78ZM56.63,40.7a1.49,1.49,0,0,1-1.48,1.49H25a1.49,1.49,0,0,1-1.49-1.49V7.83A1.49,1.49,0,0,1,25,6.35H55.15a1.48,1.48,0,0,1,1.48,1.48Z"/><path class="cls-1" d="M41.89,21.94A6.21,6.21,0,0,0,46.28,16V14.44a6.23,6.23,0,1,0-12.45,0V16a6.22,6.22,0,0,0,4.4,5.92A11,11,0,0,0,29,32.79v7.79h3V32.79a8.07,8.07,0,1,1,16.14,0v7.72h3V32.79A11,11,0,0,0,41.89,21.94ZM36.8,16V14.44a3.26,3.26,0,1,1,6.52,0V16a3.26,3.26,0,1,1-6.52,0Z"/><path class="cls-1" d="M44.52,29.59a3.3,3.3,0,0,0-1.92.67,3.3,3.3,0,0,0-1.92-.67A3.39,3.39,0,0,0,37.29,33h3c0-.47.87-.47.87,0a3.4,3.4,0,0,0,3.4,3.4v-3a.44.44,0,0,1-.44-.44c0-.47.87-.47.87,0h3A3.39,3.39,0,0,0,44.52,29.59Z"/></svg>