<svg id="Layer_1" data-name="Layer 1" xmlns="http://www.w3.org/2000/svg" viewBox="0 0 60 60"><defs><style>.cls-1{fill:#0ec5db;}</style></defs><path class="cls-1" d="M22.66,39.45a2.23,2.23,0,0,1-1-.26,2.2,2.2,0,0,1-1.16-1.94V15.76A2.49,2.49,0,0,1,23,13.27H57.24a2.56,2.56,0,0,1,2.56,2.56V32.49a2.21,2.21,0,0,1-2.2,2.2h-27l-6.69,4.4A2.22,2.22,0,0,1,22.66,39.45Zm.78-23.2V35.8l5.68-3.73a2.17,2.17,0,0,1,1.21-.36H56.81V16.25Z"/><path class="cls-1" d="M28.36,29.28a3.34,3.34,0,0,1-1.39-1,2.45,2.45,0,0,1-.5-1.37.29.29,0,0,1,.09-.21.27.27,0,0,1,.21-.09h1.3a.4.4,0,0,1,.26.07.73.73,0,0,1,.19.2,1.43,1.43,0,0,0,.65.82,2.64,2.64,0,0,0,1.4.32,2.76,2.76,0,0,0,1.5-.33,1.06,1.06,0,0,0,.51-.93.84.84,0,0,0-.26-.64,2.2,2.2,0,0,0-.77-.45c-.35-.13-.87-.28-1.56-.46a6.09,6.09,0,0,1-2.47-1.06,2.31,2.31,0,0,1-.79-1.89,2.48,2.48,0,0,1,.46-1.48,2.89,2.89,0,0,1,1.31-1,4.86,4.86,0,0,1,2-.38,4.66,4.66,0,0,1,2.05.42,3.37,3.37,0,0,1,1.32,1,2.27,2.27,0,0,1,.48,1.23.29.29,0,0,1-.09.21.27.27,0,0,1-.21.09H32.67a.42.42,0,0,1-.43-.25,1.14,1.14,0,0,0-.56-.77,2.59,2.59,0,0,0-2.44,0,1,1,0,0,0-.45.88,1,1,0,0,0,.23.64,1.89,1.89,0,0,0,.71.45,12.63,12.63,0,0,0,1.42.44,10,10,0,0,1,2,.64,2.59,2.59,0,0,1,1.1.9,2.47,2.47,0,0,1,.36,1.39,2.6,2.6,0,0,1-.51,1.61,3.12,3.12,0,0,1-1.43,1,6,6,0,0,1-2.13.35A5.64,5.64,0,0,1,28.36,29.28Z"/><path class="cls-1" d="M37.09,28.68a3.93,3.93,0,0,1-1.15-2.94c0-.27,0-.68,0-1.21s0-1,0-1.23a3.91,3.91,0,0,1,1.18-2.92,4.3,4.3,0,0,1,3-1,4.3,4.3,0,0,1,3,1,3.91,3.91,0,0,1,1.18,2.92q0,.82,0,1.23c0,.26,0,.66,0,1.21a4,4,0,0,1-1.15,2.94,4.38,4.38,0,0,1-3,1A4.35,4.35,0,0,1,37.09,28.68Zm4.56-1.25a2.59,2.59,0,0,0,.6-1.76c0-.57,0-1,0-1.16s0-.6,0-1.16a2.56,2.56,0,0,0-.61-1.75,2.26,2.26,0,0,0-3,0,2.51,2.51,0,0,0-.6,1.75c0,.28,0,.67,0,1.16s0,.88,0,1.16a2.51,2.51,0,0,0,.59,1.76,2.07,2.07,0,0,0,1.53.57A2,2,0,0,0,41.65,27.43Z"/><path class="cls-1" d="M47.5,29.28a3.34,3.34,0,0,1-1.39-1,2.45,2.45,0,0,1-.5-1.37.31.31,0,0,1,.3-.3h1.31a.44.44,0,0,1,.26.07.9.9,0,0,1,.18.2,1.47,1.47,0,0,0,.65.82,2.64,2.64,0,0,0,1.4.32,2.82,2.82,0,0,0,1.51-.33,1.07,1.07,0,0,0,.5-.93.87.87,0,0,0-.25-.64,2.26,2.26,0,0,0-.78-.45c-.35-.13-.87-.28-1.55-.46a6.08,6.08,0,0,1-2.48-1.06,2.34,2.34,0,0,1-.79-1.89,2.48,2.48,0,0,1,.46-1.48,3,3,0,0,1,1.31-1,4.89,4.89,0,0,1,2-.38,4.63,4.63,0,0,1,2.05.42,3.37,3.37,0,0,1,1.32,1,2.27,2.27,0,0,1,.48,1.23.29.29,0,0,1-.09.21.27.27,0,0,1-.21.09H51.81a.43.43,0,0,1-.43-.25,1.11,1.11,0,0,0-.56-.77,2.59,2.59,0,0,0-2.44,0,1,1,0,0,0-.45.88,1,1,0,0,0,.23.64,1.86,1.86,0,0,0,.72.45,11.72,11.72,0,0,0,1.41.44,9.78,9.78,0,0,1,2,.64,2.69,2.69,0,0,1,1.11.9,2.56,2.56,0,0,1,.35,1.39,2.66,2.66,0,0,1-.5,1.61,3.23,3.23,0,0,1-1.43,1,6.12,6.12,0,0,1-2.14.35A5.64,5.64,0,0,1,47.5,29.28Z"/><path class="cls-1" d="M36.76,10.28V6.06A5.68,5.68,0,0,0,31.08.39H5.88A5.68,5.68,0,0,0,.2,6.06V53.94a5.68,5.68,0,0,0,5.68,5.67h25.2a5.68,5.68,0,0,0,5.68-5.67V37.68h-3V48.44H3.19V6.06A2.69,2.69,0,0,1,5.88,3.37h25.2a2.7,2.7,0,0,1,2.7,2.69v4.22Zm-3,41.14v2.52a2.7,2.7,0,0,1-2.7,2.69H5.88a2.69,2.69,0,0,1-2.69-2.69V51.42Z"/></svg>