<svg id="Layer_1" data-name="Layer 1" xmlns="http://www.w3.org/2000/svg" viewBox="0 0 60 60"><defs><style>.cls-1{fill:#0ec5db;}</style></defs><path class="cls-1" d="M20,.39,16.1,4.24,12.37.5.5,12.37l3.74,3.74L.39,20l5.76,5.76L25.72,6.15ZM6.27,14.07l-1.71-1.7,7.81-7.81,1.7,1.71-3.9,3.9ZM4.44,20l1.83-1.83h0L12.2,12.2,20,4.45l1.71,1.7L6.15,21.66Z"/><path class="cls-1" d="M59.61,40.05l-5.76-5.77L47,41.18,20.63,14.86l-2,2L44.92,43.21l-1.71,1.71L16.89,18.6l-2,2L41.18,47l-6.9,6.9L40,59.61l3.86-3.85,3.73,3.74L59.5,47.63,55.76,43.9ZM40,55.55l-1.7-1.7L43.21,49h0l4.59-4.6,6.05-6,1.71,1.71-1.83,1.82h0L41.87,53.73h0Zm15.4-7.92-7.81,7.81-1.7-1.71,7.8-7.8Z"/><path class="cls-1" d="M45.81,27.42A13.41,13.41,0,1,0,32.41,14,13.43,13.43,0,0,0,45.81,27.42Zm0-24.1A10.69,10.69,0,1,1,35.12,14,10.71,10.71,0,0,1,45.81,3.32Z"/><path class="cls-1" d="M45.07,23.27h1.46a.92.92,0,0,0,.64-.25.87.87,0,0,0,.28-.65V20.89a.86.86,0,0,0-.28-.65.93.93,0,0,0-.64-.25H45.07a.89.89,0,0,0-.9.9v1.48a.85.85,0,0,0,.26.64A.88.88,0,0,0,45.07,23.27Z"/><path class="cls-1" d="M45.29,18.44h1a.85.85,0,0,0,.64-.26.88.88,0,0,0,.26-.64V5.65a.87.87,0,0,0-.9-.9h-1a.88.88,0,0,0-.63.24.85.85,0,0,0-.27.66V17.54a.89.89,0,0,0,.9.9Z"/></svg>