<svg id="Layer_1" data-name="Layer 1" xmlns="http://www.w3.org/2000/svg" viewBox="0 0 60 60"><defs><style>.cls-1{fill:#0ec5db;}</style></defs><path class="cls-1" d="M47.12,24.05a7,7,0,0,0,7-7V15.25a7,7,0,0,0-14,0v1.83A7,7,0,0,0,47.12,24.05Zm-4-8.8a4,4,0,0,1,8.08,0v1.83a4,4,0,0,1-8.08,0Z"/><path class="cls-1" d="M47.12,25.27a12.58,12.58,0,0,0-10.31,5.37,21.4,21.4,0,0,1,1.9,2.6,9.61,9.61,0,0,1,18,4.56v8.94h3V37.8A12.58,12.58,0,0,0,47.12,25.27Z"/><path class="cls-1" d="M19.72,25.7A19.41,19.41,0,0,0,.28,45V59.61h3V45a16.48,16.48,0,0,1,33,0V59.48h3V45A19.41,19.41,0,0,0,19.72,25.7Z"/><path class="cls-1" d="M19.72,24.05A10.4,10.4,0,0,0,30.13,13.69V10.74a10.41,10.41,0,0,0-20.81,0v2.95A10.4,10.4,0,0,0,19.72,24.05ZM12.29,10.74a7.44,7.44,0,0,1,14.87,0v2.95a7.44,7.44,0,0,1-14.87,0Z"/><rect class="cls-1" x="24.25" y="41.18" width="8.87" height="2.96"/><rect class="cls-1" x="18.24" y="35.56" width="2.96" height="22.12"/><path class="cls-1" d="M52.12,34.33a3.67,3.67,0,0,0-2.23.82,3.63,3.63,0,0,0-2.23-.82A3.71,3.71,0,0,0,44,38h3c0-.79,1.49-.79,1.49,0a3.71,3.71,0,0,0,3.71,3.7v-3a.75.75,0,0,1-.74-.74c0-.79,1.49-.79,1.49,0h3A3.72,3.72,0,0,0,52.12,34.33Z"/></svg>