<svg id="Layer_1" data-name="Layer 1" xmlns="http://www.w3.org/2000/svg" viewBox="0 0 60 60"><defs><style>.cls-1{fill:#0ec5db;}</style></defs><path class="cls-1" d="M5.09,40.06H.43V55.21H5.09v4.4h7.54V34.86H5.09ZM3.31,52.33V42.94H5.09v9.39ZM8,37.74H9.75v19H8v-19Z"/><path class="cls-1" d="M59.57,39.26H54.91v-4.4H47.38v8.61H14.71v2.88H47.38v1.78H14.71V51H47.38v8.61h7.53v-5.2h4.66ZM52,56.74H50.25v-19H52v19Zm4.65-5.21H54.91V42.14h1.78Z"/><path class="cls-1" d="M30,24A10.33,10.33,0,0,0,40.32,13.66v-3a10.32,10.32,0,0,0-20.64,0v3A10.33,10.33,0,0,0,30,24ZM22.57,10.7a7.44,7.44,0,1,1,14.87,0v3a7.44,7.44,0,1,1-14.87,0Z"/><path class="cls-1" d="M30,28.6a16.3,16.3,0,0,1,9.78,3.26h4.3a19.21,19.21,0,0,0-28.16,0h4.31A16.27,16.27,0,0,1,30,28.6Z"/></svg>