<svg id="Layer_1" data-name="Layer 1" xmlns="http://www.w3.org/2000/svg" viewBox="0 0 60 60"><defs><style>.cls-1{fill:#0ec5db;}</style></defs><path class="cls-1" d="M22.66,39.45a2.23,2.23,0,0,1-1-.26,2.2,2.2,0,0,1-1.16-1.94V15.76A2.49,2.49,0,0,1,23,13.27H57.24a2.56,2.56,0,0,1,2.56,2.56V32.49a2.21,2.21,0,0,1-2.2,2.2h-27l-6.69,4.4A2.22,2.22,0,0,1,22.66,39.45Zm.78-23.2V35.8l5.68-3.73a2.17,2.17,0,0,1,1.21-.36H56.81V16.25Z"/><path class="cls-1" d="M36.76,10.28V6.06A5.68,5.68,0,0,0,31.08.39H5.88A5.68,5.68,0,0,0,.2,6.06V53.94a5.68,5.68,0,0,0,5.68,5.67h25.2a5.68,5.68,0,0,0,5.68-5.67V37.68h-3V48.44H3.19V6.06A2.69,2.69,0,0,1,5.88,3.37h25.2a2.7,2.7,0,0,1,2.7,2.69v4.22Zm-3,41.14v2.52a2.7,2.7,0,0,1-2.7,2.69H5.88a2.69,2.69,0,0,1-2.69-2.69V51.42Z"/><path class="cls-1" d="M32.51,29.89a.33.33,0,0,1-.1-.25V21.79l-2.3,1.76a.36.36,0,0,1-.52-.07l-.65-.86a.34.34,0,0,1,.09-.51l3.41-2.65a.7.7,0,0,1,.38-.11h1.37a.38.38,0,0,1,.26.11.35.35,0,0,1,.1.26v9.92a.33.33,0,0,1-.1.25.34.34,0,0,1-.26.11H32.77A.34.34,0,0,1,32.51,29.89Z"/><path class="cls-1" d="M39.57,29.89a.33.33,0,0,1-.1-.25V21.79l-2.3,1.76a.36.36,0,0,1-.23.08.34.34,0,0,1-.29-.15L36,22.62a.34.34,0,0,1,.09-.51l3.41-2.65a.7.7,0,0,1,.38-.11h1.37a.38.38,0,0,1,.26.11.35.35,0,0,1,.1.26v9.92a.33.33,0,0,1-.1.25.34.34,0,0,1-.26.11H39.83A.34.34,0,0,1,39.57,29.89Z"/><path class="cls-1" d="M43.46,29.89a.37.37,0,0,1-.1-.25v-.8a.87.87,0,0,1,.38-.71l2.37-2.36c.72-.56,1.28-1,1.67-1.39a4.94,4.94,0,0,0,.87-1,1.59,1.59,0,0,0,.29-.89,1.56,1.56,0,0,0-.38-1.13A1.51,1.51,0,0,0,47.41,21a1.59,1.59,0,0,0-1.2.45,2.06,2.06,0,0,0-.54,1.16.44.44,0,0,1-.17.27.57.57,0,0,1-.28.08H43.85a.32.32,0,0,1-.23-.09.3.3,0,0,1-.09-.23,3.43,3.43,0,0,1,1.82-2.94,4.16,4.16,0,0,1,2-.48,4.66,4.66,0,0,1,2.07.42,2.94,2.94,0,0,1,1.28,1.15,3.24,3.24,0,0,1,.42,1.65,3.16,3.16,0,0,1-.57,1.85A8.41,8.41,0,0,1,48.82,26l-2.11,2.14H51a.35.35,0,0,1,.27.11.37.37,0,0,1,.11.27v1.1a.33.33,0,0,1-.11.26A.35.35,0,0,1,51,30H43.72A.34.34,0,0,1,43.46,29.89Z"/></svg>