<svg id="Layer_1" data-name="Layer 1" xmlns="http://www.w3.org/2000/svg" viewBox="0 0 60 60"><defs><style>.cls-1{fill:#0ec5db;}</style></defs><path class="cls-1" d="M47.12,24.06a7,7,0,0,0,7-7V15.26a7,7,0,0,0-14,0v1.82A7,7,0,0,0,47.12,24.06Zm-4-8.8a4,4,0,0,1,8.07,0v1.82a4,4,0,0,1-8.07,0Z"/><path class="cls-1" d="M52.12,34.33a3.67,3.67,0,0,0-2.23.82A3.64,3.64,0,0,0,44,38h3c0-.79,1.49-.79,1.49,0a3.71,3.71,0,0,0,3.71,3.71v-3a.75.75,0,0,1-.74-.74c0-.79,1.48-.79,1.48,0h3A3.72,3.72,0,0,0,52.12,34.33Z"/><path class="cls-1" d="M47.12,25.27a12.58,12.58,0,0,0-10.31,5.37,22.2,22.2,0,0,1,1.9,2.6,9.6,9.6,0,0,1,18,4.57v8.93h3V37.81A12.59,12.59,0,0,0,47.12,25.27Z"/><path class="cls-1" d="M19.73,25.7A19.42,19.42,0,0,0,.28,45V59.61h3V45a16.47,16.47,0,0,1,32.93,0V59.48h3V45A19.41,19.41,0,0,0,19.73,25.7Z"/><path class="cls-1" d="M19.73,24.05A10.39,10.39,0,0,0,30.13,13.7v-3a10.41,10.41,0,0,0-20.81,0v3A10.39,10.39,0,0,0,19.73,24.05ZM12.29,10.74a7.44,7.44,0,0,1,14.87,0v3a7.44,7.44,0,0,1-14.87,0Z"/><path class="cls-1" d="M27.88,42.85a5.08,5.08,0,0,0-3.63,1.52A5.12,5.12,0,0,0,15.49,48h3a2.15,2.15,0,0,1,4.3,0,5.11,5.11,0,0,0,5.12,5.1v-3A2.13,2.13,0,1,1,30,48h3A5.11,5.11,0,0,0,27.88,42.85Z"/></svg>