<svg id="Layer_1" data-name="Layer 1" xmlns="http://www.w3.org/2000/svg" viewBox="0 0 60 60"><defs><style>.cls-1{fill:#0ec5db;}</style></defs><path class="cls-1" d="M36.1,44.48H24.25V36.29h-8.2V24.44h8.2V16.25H36.1v8.19h8.19V36.29H36.1Zm-8.89-3h5.92V33.33h8.2V27.4h-8.2V19.21H27.21V27.4H19v5.93h8.2Z"/><polygon class="cls-1" points="3.33 59.61 0.36 59.61 0.36 16.25 7.1 16.25 7.1 19.21 3.33 19.21 3.33 59.61"/><polygon class="cls-1" points="59.64 59.61 56.67 59.61 56.67 19.21 52.9 19.21 52.9 16.25 59.64 16.25 59.64 59.61"/><path class="cls-1" d="M51.11,59.61H8.89V.39H51.11Zm-39.26-3H48.14V3.35H11.85Z"/></svg>