<svg id="Layer_1" data-name="Layer 1" xmlns="http://www.w3.org/2000/svg" viewBox="0 0 60 60"><defs><style>.cls-1{fill:#0ec5db;}</style></defs><path class="cls-1" d="M36.09,45v3.43h3V45A19.34,19.34,0,1,0,.38,45V59.61h3V45a16.38,16.38,0,0,1,32.76,0Z"/><path class="cls-1" d="M19.71,24A10.36,10.36,0,0,0,30.06,13.69v-3a10.35,10.35,0,0,0-20.7,0v3A10.36,10.36,0,0,0,19.71,24ZM12.32,10.73a7.39,7.39,0,0,1,14.78,0v3a7.39,7.39,0,0,1-14.78,0Z"/><path class="cls-1" d="M52.43,45.11a7.19,7.19,0,0,0-7,5.71H22.17v3h3v5.75h3V53.78h3.1v5.75h2.95V53.78H45.4a7.19,7.19,0,1,0,7-8.67Zm0,11.43a4.24,4.24,0,1,1,4.24-4.24A4.24,4.24,0,0,1,52.43,56.54Z"/></svg>