<svg id="Layer_1" data-name="Layer 1" xmlns="http://www.w3.org/2000/svg" viewBox="0 0 60 60"><defs><style>.cls-1{fill:#0ec5db;}</style></defs><path class="cls-1" d="M19.66,23.69a6.79,6.79,0,0,1,1.15-.93,9.12,9.12,0,0,1,18,2v3.1l3-3.18a12.1,12.1,0,0,0-24.19.08v1.14Z"/><path class="cls-1" d="M40.58,36.61a6.41,6.41,0,0,1-2,1.41,9.12,9.12,0,0,1-18-2.08V33.35l-2.84,3.06-.08.06a12.08,12.08,0,0,0,24.15-.53V35.3Z"/><polygon class="cls-1" points="38.41 11.43 35.44 11.43 35.44 3.35 23.96 3.35 23.96 11.43 20.99 11.43 20.99 0.38 38.41 0.38 38.41 11.43"/><polygon class="cls-1" points="38.41 59.62 20.99 59.62 20.99 48.57 23.96 48.57 23.96 56.66 35.44 56.66 35.44 48.57 38.41 48.57 38.41 59.62"/><path class="cls-1" d="M57.5,36.66l-9.08-9.44a1.35,1.35,0,0,0-1-.4h0a1.32,1.32,0,0,0-.94.4L39,35.07a4.37,4.37,0,0,1-6.17,0l-7.49-7.78a1.28,1.28,0,0,0-.95-.41h0a1.29,1.29,0,0,0-.94.4l-7.3,7.59A4.24,4.24,0,0,1,13,36.18h0A4.22,4.22,0,0,1,10,34.87l-9.59-10L2.5,22.85l9.59,10a1.29,1.29,0,0,0,.94.4h0a1.31,1.31,0,0,0,1-.4l7.3-7.58a4.21,4.21,0,0,1,3.08-1.32h0a4.25,4.25,0,0,1,3.09,1.32L34.94,33a1.36,1.36,0,0,0,1.89,0l7.56-7.85a4.22,4.22,0,0,1,3.08-1.31h0a4.24,4.24,0,0,1,3.09,1.31l9.08,9.44Z"/></svg>