<svg id="Layer_1" data-name="Layer 1" xmlns="http://www.w3.org/2000/svg" viewBox="0 0 60 60"><defs><style>.cls-1{fill:#0ec5db;}</style></defs><path class="cls-1" d="M2.83,59.61a2.47,2.47,0,0,1-1.21-.3A2.55,2.55,0,0,1,.28,57.07V3.4a3,3,0,0,1,3-3H56.6a3.12,3.12,0,0,1,3.12,3.12v46A2.55,2.55,0,0,1,57.17,52H15.08L4.23,59.2A2.54,2.54,0,0,1,2.83,59.61Zm-.15-2.78ZM3.3,3.22,3.11,56.55l10.57-6.94a2.48,2.48,0,0,1,1.4-.42H56.89V3.51a.28.28,0,0,0-.29-.29Z"/><path class="cls-1" d="M11.44,33.43a5,5,0,0,1-2.11-1.55,3.61,3.61,0,0,1-.76-2.08.44.44,0,0,1,.13-.32A.45.45,0,0,1,9,29.34h2a.67.67,0,0,1,.39.11,1.17,1.17,0,0,1,.28.3,2.24,2.24,0,0,0,1,1.24,3.89,3.89,0,0,0,2.12.5,4.24,4.24,0,0,0,2.3-.51,1.61,1.61,0,0,0,.77-1.4,1.33,1.33,0,0,0-.39-1,3.21,3.21,0,0,0-1.19-.68,23.87,23.87,0,0,0-2.36-.71,9.28,9.28,0,0,1-3.76-1.61A3.54,3.54,0,0,1,9,22.73a3.78,3.78,0,0,1,.7-2.25,4.64,4.64,0,0,1,2-1.56,7.42,7.42,0,0,1,3-.56,7.18,7.18,0,0,1,3.12.63,5.07,5.07,0,0,1,2,1.57,3.48,3.48,0,0,1,.73,1.88.44.44,0,0,1-.13.32.39.39,0,0,1-.33.14H18a.64.64,0,0,1-.65-.39,1.7,1.7,0,0,0-.85-1.16,3.36,3.36,0,0,0-1.83-.47,3.39,3.39,0,0,0-1.88.45,1.5,1.5,0,0,0-.69,1.33,1.43,1.43,0,0,0,.35,1,2.92,2.92,0,0,0,1.09.69,22.08,22.08,0,0,0,2.15.66,15.16,15.16,0,0,1,3.08,1,4.07,4.07,0,0,1,1.69,1.37A3.78,3.78,0,0,1,21,29.45a4,4,0,0,1-.77,2.44A4.72,4.72,0,0,1,18,33.47a9,9,0,0,1-3.25.55A8.65,8.65,0,0,1,11.44,33.43Z"/><path class="cls-1" d="M24.71,32.52A6,6,0,0,1,23,28.06c0-.42,0-1,0-1.85s0-1.45,0-1.87a6,6,0,0,1,1.78-4.44,6.55,6.55,0,0,1,4.59-1.54,6.56,6.56,0,0,1,4.58,1.54,5.9,5.9,0,0,1,1.79,4.44c0,.84,0,1.46,0,1.87s0,1,0,1.85A5.94,5.94,0,0,1,34,32.52,6.65,6.65,0,0,1,29.34,34,6.63,6.63,0,0,1,24.71,32.52Zm6.94-1.9A3.92,3.92,0,0,0,32.56,28c0-.87,0-1.46,0-1.76s0-.92,0-1.77a3.81,3.81,0,0,0-.94-2.66,3.42,3.42,0,0,0-4.58,0,3.76,3.76,0,0,0-.92,2.66c0,.42,0,1,0,1.77s0,1.32,0,1.76a3.83,3.83,0,0,0,.9,2.66,3.1,3.1,0,0,0,2.32.88A3.09,3.09,0,0,0,31.65,30.62Z"/><path class="cls-1" d="M40.54,33.43a5,5,0,0,1-2.11-1.55,3.61,3.61,0,0,1-.76-2.08.44.44,0,0,1,.13-.32.45.45,0,0,1,.33-.14h2a.67.67,0,0,1,.39.11,1.17,1.17,0,0,1,.28.3,2.24,2.24,0,0,0,1,1.24,3.89,3.89,0,0,0,2.12.5,4.22,4.22,0,0,0,2.3-.51,1.61,1.61,0,0,0,.77-1.4,1.33,1.33,0,0,0-.39-1,3.21,3.21,0,0,0-1.19-.68A23.87,23.87,0,0,0,43,27.21a9.28,9.28,0,0,1-3.76-1.61,3.54,3.54,0,0,1-1.2-2.87,3.78,3.78,0,0,1,.7-2.25,4.64,4.64,0,0,1,2-1.56,7.42,7.42,0,0,1,3-.56,7.18,7.18,0,0,1,3.12.63,5.07,5.07,0,0,1,2,1.57,3.48,3.48,0,0,1,.73,1.88.44.44,0,0,1-.13.32.39.39,0,0,1-.33.14H47.09a.64.64,0,0,1-.65-.39,1.7,1.7,0,0,0-.85-1.16,4,4,0,0,0-3.71,0,1.5,1.5,0,0,0-.69,1.33,1.43,1.43,0,0,0,.35,1,3,3,0,0,0,1.09.69,22.08,22.08,0,0,0,2.15.66,15.16,15.16,0,0,1,3.08,1,4,4,0,0,1,1.69,1.37,3.78,3.78,0,0,1,.54,2.11,4,4,0,0,1-.77,2.44,4.67,4.67,0,0,1-2.18,1.58,9,9,0,0,1-3.25.55A8.65,8.65,0,0,1,40.54,33.43Z"/></svg>