<svg id="Layer_1" data-name="Layer 1" xmlns="http://www.w3.org/2000/svg" viewBox="0 0 60 60"><defs><style>.cls-1{fill:#0ec5db;}</style></defs><path class="cls-1" d="M19.84,25.7A19.37,19.37,0,0,0,.5,45V59.61h3V45a16.38,16.38,0,0,1,32.76,0V59.48h3V45A19.36,19.36,0,0,0,19.84,25.7Z"/><path class="cls-1" d="M19.84,24A10.36,10.36,0,0,0,30.18,13.69v-3a10.35,10.35,0,0,0-20.69,0v3A10.36,10.36,0,0,0,19.84,24Zm-7.4-13.31a7.4,7.4,0,0,1,14.79,0v3a7.4,7.4,0,0,1-14.79,0Z"/><rect class="cls-1" x="24.34" y="41.18" width="8.82" height="2.96"/><rect class="cls-1" x="18.36" y="35.56" width="2.96" height="22.12"/><polygon class="cls-1" points="44.58 21.23 47.53 21.23 47.53 15.34 53.42 15.34 53.42 12.38 47.53 12.38 47.53 6.49 44.58 6.49 44.58 12.38 38.69 12.38 38.69 15.34 44.58 15.34 44.58 21.23"/><path class="cls-1" d="M32.61.42V27.3H59.5V.42ZM56.54,24.35h-21v-21h21Z"/></svg>