<svg id="Layer_1" data-name="Layer 1" xmlns="http://www.w3.org/2000/svg" viewBox="0 0 60 60"><defs><style>.cls-1{fill:#0ec5db;}</style></defs><path class="cls-1" d="M44.07.39A15.52,15.52,0,0,0,30,9.42,15.52,15.52,0,0,0,.38,15.94v4A25.16,25.16,0,0,0,6.72,36.61L25.19,57.43A6.48,6.48,0,0,0,30,59.61h0a6.49,6.49,0,0,0,4.85-2.19L53.31,36.6a25.18,25.18,0,0,0,6.31-16.68v-4A15.56,15.56,0,0,0,44.07.39ZM56.66,19.92a22.23,22.23,0,0,1-5.57,14.72L32.68,55.46A3.51,3.51,0,0,1,30,56.65h0a3.54,3.54,0,0,1-2.64-1.18L8.93,34.64A22.23,22.23,0,0,1,3.34,19.9v-4a12.59,12.59,0,0,1,25.18,0h3a12.59,12.59,0,1,1,25.18,0Z"/></svg>