<svg id="Layer_1" data-name="Layer 1" xmlns="http://www.w3.org/2000/svg" viewBox="0 0 60 60"><defs><style>.cls-1{fill:#0ec5db;}</style></defs><path class="cls-1" d="M56.65,19.94a22,22,0,0,1-1,6.67A16.28,16.28,0,0,1,58,28.72a25.36,25.36,0,0,0,1.58-8.78V16h-3Z"/><path class="cls-1" d="M32.67,55.47A3.47,3.47,0,0,1,30,56.65h0a3.47,3.47,0,0,1-2.63-1.18L8.94,34.65A22.2,22.2,0,0,1,3.35,19.92V16a12.59,12.59,0,1,1,25.17,0h3v0h0a12.59,12.59,0,0,1,25.17,0h3A15.52,15.52,0,0,0,30,9.43,15.51,15.51,0,0,0,.39,16v4a25.14,25.14,0,0,0,6.34,16.7L25.19,57.43A6.48,6.48,0,0,0,30,59.61h0a6.48,6.48,0,0,0,4.86-2.18l2.75-3.12a16.68,16.68,0,0,1-2.42-1.74Z"/><path class="cls-1" d="M46,26.49A13.58,13.58,0,1,0,59.61,40.07,13.61,13.61,0,0,0,46,26.49Zm0,24.2A10.62,10.62,0,1,1,56.65,40.07,10.63,10.63,0,0,1,46,50.69Z"/><path class="cls-1" d="M47.77,34H46.22a.78.78,0,0,0-.43.13l-3.88,3a.44.44,0,0,0-.18.35.38.38,0,0,0,.08.24l.74,1a.37.37,0,0,0,.33.17.42.42,0,0,0,.26-.08l2.61-2v8.92a.4.4,0,0,0,.12.29.41.41,0,0,0,.3.12h1.6a.42.42,0,0,0,.3-.12.4.4,0,0,0,.12-.29V34.44a.4.4,0,0,0-.12-.29A.43.43,0,0,0,47.77,34Z"/></svg>