<svg id="Layer_1" data-name="Layer 1" xmlns="http://www.w3.org/2000/svg" viewBox="0 0 60 60"><defs><style>.cls-1{fill:#0ec5db;}</style></defs><path class="cls-1" d="M20,.39,16.1,4.24,12.37.5.5,12.37,4.24,16.1.39,20l5.76,5.77L25.72,6.15Zm-15.4,12,7.81-7.81,1.7,1.71-7.8,7.8ZM4.45,20l1.82-1.82h0L18.13,6.27h0L20,4.45l1.7,1.7L6.15,21.66Z"/><path class="cls-1" d="M59.61,40l-5.76-5.76L47,41.18,20.62,14.86l-2,2L44.92,43.21l-.86.85-.85.86L16.89,18.6l-2,2L41.18,47l-6.9,6.9L40,59.61l3.86-3.85,3.73,3.74L59.5,47.63l-3.74-3.74ZM38.34,53.85,43.21,49h0l2.88-2.89,7.76-7.75,1.7,1.7-1.82,1.83h0L47.8,47.8,40,55.55Zm15.39-7.92,1.71,1.7-7.81,7.81-1.7-1.71,3.9-3.9Z"/></svg>