<svg id="Layer_1" data-name="Layer 1" xmlns="http://www.w3.org/2000/svg" viewBox="0 0 60 60"><defs><style>.cls-1{fill:#0ec5db;}</style></defs><path class="cls-1" d="M59.18,13.91a13.52,13.52,0,1,0-15,13.37V56a.7.7,0,0,1-.7.71H16.89a.7.7,0,0,1-.7-.71v-9.2H28.3V.67H.82V46.76H13.24V56a3.65,3.65,0,0,0,3.65,3.65h26.6A3.65,3.65,0,0,0,47.14,56V27.28A13.5,13.5,0,0,0,59.18,13.91ZM3.4,3.25H25.72V44.18H3.4ZM45.66,24.48A10.58,10.58,0,1,1,56.23,13.91,10.58,10.58,0,0,1,45.66,24.48Z"/><path class="cls-1" d="M45.66,4.29a9.07,9.07,0,0,0-9.06,9.06h2.95a6.11,6.11,0,1,1,12.22,0h2.95A9.07,9.07,0,0,0,45.66,4.29Z"/><path class="cls-1" d="M46.18,9.48h-1a.87.87,0,0,0-.9.9V22.27a.87.87,0,0,0,.9.89h1a.9.9,0,0,0,.63-.23.87.87,0,0,0,.27-.66V10.38a.85.85,0,0,0-.26-.64A.87.87,0,0,0,46.18,9.48Z"/></svg>