<svg id="Layer_1" data-name="Layer 1" xmlns="http://www.w3.org/2000/svg" viewBox="0 0 60 60"><defs><style>.cls-1{fill:#0ec5db;}</style></defs><rect class="cls-1" x="34.01" y="8.47" width="25.54" height="2.96"/><rect class="cls-1" x="34.01" y="0.39" width="25.54" height="2.96"/><rect class="cls-1" x="34.01" y="16.55" width="25.54" height="2.96"/><path class="cls-1" d="M3.4,59.61H.45V45a19.34,19.34,0,1,1,38.67,0V59.48h-3V45A16.38,16.38,0,1,0,3.4,45Z"/><path class="cls-1" d="M19.78,24A10.36,10.36,0,0,1,9.44,13.69v-3a10.35,10.35,0,0,1,20.69,0v3A10.36,10.36,0,0,1,19.78,24Zm0-20.7a7.4,7.4,0,0,0-7.39,7.39v3a7.4,7.4,0,0,0,14.79,0v-3A7.41,7.41,0,0,0,19.78,3.34Z"/><rect class="cls-1" x="24.29" y="41.18" width="8.82" height="2.96"/><rect class="cls-1" x="18.31" y="35.56" width="2.96" height="22.12"/></svg>