<svg id="Layer_1" data-name="Layer 1" xmlns="http://www.w3.org/2000/svg" viewBox="0 0 60 60"><defs><style>.cls-1{fill:#0ec5db;}</style></defs><polygon class="cls-1" points="59.57 59.62 0.43 59.62 0.43 5.29 8.81 5.29 8.81 8.26 3.4 8.26 3.4 56.65 56.6 56.65 56.6 8.26 51.24 8.26 51.24 5.29 59.57 5.29 59.57 59.62"/><path class="cls-1" d="M48.29,23.78H11.79V.39h36.5Zm-33.53-3H45.32V3.35H14.76Z"/><path class="cls-1" d="M20.91,17.47a.35.35,0,0,1-.1-.26V7a.39.39,0,0,1,.1-.28.35.35,0,0,1,.27-.11h1.41a.42.42,0,0,1,.29.11A.39.39,0,0,1,23,7v3.68l3.5-3.79a.75.75,0,0,1,.61-.28h1.6a.33.33,0,0,1,.23.09.31.31,0,0,1,.1.24.24.24,0,0,1-.08.19l-4.27,4.74,4.59,5.2a.41.41,0,0,1,.06.2.32.32,0,0,1-.09.24.31.31,0,0,1-.22.09H27.37a.66.66,0,0,1-.47-.13l-.16-.15L23,13.15v4.06a.36.36,0,0,1-.11.26.42.42,0,0,1-.29.11H21.18A.39.39,0,0,1,20.91,17.47Z"/><path class="cls-1" d="M31.1,16.63a4.29,4.29,0,0,1-1.28-3.12c0-.3,0-.79,0-1.46s0-1.15,0-1.46a4.09,4.09,0,0,1,1.29-3,4.8,4.8,0,0,1,3.36-1.11,5.79,5.79,0,0,1,2.49.5,4,4,0,0,1,1.57,1.22,2.64,2.64,0,0,1,.57,1.44.32.32,0,0,1-.09.23.34.34,0,0,1-.26.1H37.1a.37.37,0,0,1-.23-.06.59.59,0,0,1-.14-.21,2.23,2.23,0,0,0-.77-1,2.46,2.46,0,0,0-1.49-.41,2.41,2.41,0,0,0-1.72.59,2.57,2.57,0,0,0-.66,1.83c0,.3,0,.77,0,1.38s0,1.07,0,1.39a2.62,2.62,0,0,0,.67,1.87,2.37,2.37,0,0,0,1.72.61,2.58,2.58,0,0,0,1.79-.6A2.26,2.26,0,0,0,37,13.53V13H35a.38.38,0,0,1-.38-.37V11.8a.4.4,0,0,1,.11-.27.39.39,0,0,1,.27-.1H38.8a.37.37,0,0,1,.28.1.36.36,0,0,1,.11.27v1.67a4.31,4.31,0,0,1-.58,2.27A3.81,3.81,0,0,1,37,17.22a5.64,5.64,0,0,1-2.5.52A4.77,4.77,0,0,1,31.1,16.63Z"/></svg>