<svg id="Layer_1" data-name="Layer 1" xmlns="http://www.w3.org/2000/svg" viewBox="0 0 60 60"><defs><style>.cls-1{fill:#0ec5db;}</style></defs><rect class="cls-1" x="16.39" y="8.49" width="35.51" height="2.97"/><rect class="cls-1" x="16.39" y="16.19" width="35.51" height="2.97"/><rect class="cls-1" x="7.88" y="44.19" width="19.39" height="3.16"/><rect class="cls-1" x="7.88" y="39.27" width="19.39" height="3.16"/><rect class="cls-1" x="7.88" y="49.12" width="19.39" height="3.16"/><polygon class="cls-1" points="35.64 39.36 35.64 44.29 30.71 44.29 30.71 47.26 35.64 47.26 35.64 52.19 38.61 52.19 38.61 47.26 43.54 47.26 43.54 44.29 38.61 44.29 38.61 39.36 35.64 39.36"/><rect class="cls-1" x="16.39" y="25.1" width="7.29" height="2.97"/><polygon class="cls-1" points="9.12 0.39 9.12 28.07 14.17 28.07 14.17 25.1 12.09 25.1 12.09 3.35 56.64 3.35 56.64 25.1 25.91 25.1 25.91 28.07 59.61 28.07 59.61 0.39 9.12 0.39"/><polygon class="cls-1" points="0.39 59.62 5.66 59.62 5.66 56.65 3.36 56.65 3.36 34.9 47.91 34.9 47.91 56.65 17.4 56.65 17.4 59.62 50.88 59.62 50.88 31.93 0.39 31.93 0.39 59.62"/><rect class="cls-1" x="7.88" y="56.65" width="7.29" height="2.97"/></svg>