<svg id="Layer_1" data-name="Layer 1" xmlns="http://www.w3.org/2000/svg" viewBox="0 0 60 60"><defs><style>.cls-1{fill:#0ec5db;}</style></defs><path class="cls-1" d="M29.6,12.7a12.05,12.05,0,0,0-12,12V35.86a12,12,0,0,0,24.08,0V24.74A12.05,12.05,0,0,0,29.6,12.7Zm9.09,23.16a9.09,9.09,0,1,1-18.17,0V24.74a9.09,9.09,0,1,1,18.17,0Z"/><polygon class="cls-1" points="23.89 3.41 35.32 3.41 35.32 11.46 38.27 11.46 38.27 0.46 20.93 0.46 20.93 11.46 23.89 11.46 23.89 3.41"/><polygon class="cls-1" points="35.32 56.47 23.89 56.47 23.89 48.42 20.93 48.42 20.93 59.42 38.27 59.42 38.27 48.42 35.32 48.42 35.32 56.47"/><rect class="cls-1" x="0.41" y="6.55" width="16.79" height="2.95"/><rect class="cls-1" x="0.41" y="50.49" width="16.79" height="2.95"/><path class="cls-1" d="M59.42,2.33,57.21.38A18.33,18.33,0,0,1,43.49,6.55H41.88v3h1.61A21.28,21.28,0,0,0,59.42,2.33Z"/><path class="cls-1" d="M43.66,50.49H42.05v3h1.61a18.36,18.36,0,0,1,13.72,6.17l2.21-1.95A21.29,21.29,0,0,0,43.66,50.49Z"/></svg>