<svg id="Layer_1" data-name="Layer 1" xmlns="http://www.w3.org/2000/svg" viewBox="0 0 60 60"><defs><style>.cls-1{fill:#0ec5db;}</style></defs><path class="cls-1" d="M19.34,25.7A19.36,19.36,0,0,0,0,45V59.61H3V45a16.38,16.38,0,1,1,32.75,0V59.48h3V45A19.36,19.36,0,0,0,19.34,25.7Z"/><path class="cls-1" d="M27.67,40.35a5.06,5.06,0,0,0-3.59,1.49,5.06,5.06,0,0,0-8.64,3.57h3a2.11,2.11,0,0,1,4.21,0,5.07,5.07,0,0,0,5.06,5.06v-3a2.1,2.1,0,1,1,2.1-2.1h3A5.07,5.07,0,0,0,27.67,40.35Z"/><path class="cls-1" d="M19.34,24A10.36,10.36,0,0,0,29.68,13.69v-3A10.35,10.35,0,0,0,9,10.73v3A10.36,10.36,0,0,0,19.34,24Zm-7.4-13.31a7.4,7.4,0,0,1,14.79,0v3a7.4,7.4,0,0,1-14.79,0Z"/><rect class="cls-1" x="33.56" y="8.47" width="25.54" height="2.96"/><rect class="cls-1" x="33.56" y="0.39" width="25.54" height="2.96"/><rect class="cls-1" x="33.56" y="16.55" width="25.54" height="2.96"/></svg>