<svg id="Layer_1" data-name="Layer 1" xmlns="http://www.w3.org/2000/svg" viewBox="0 0 60 60"><defs><style>.cls-1{fill:#0ec5db;}</style></defs><path class="cls-1" d="M45.29,3.44a4.52,4.52,0,0,0-8.55,0H.36v3H36.74a4.52,4.52,0,0,0,8.55,0H59.64v-3ZM41,6.51a1.58,1.58,0,1,1,1.58-1.58A1.58,1.58,0,0,1,41,6.51Z"/><path class="cls-1" d="M19,50.53a4.53,4.53,0,0,0-4.28,3.06H.36v3H14.71a4.52,4.52,0,0,0,8.55,0H59.64v-3H23.26A4.52,4.52,0,0,0,19,50.53Zm0,6.12a1.58,1.58,0,1,1,1.58-1.58A1.58,1.58,0,0,1,19,56.65Z"/><path class="cls-1" d="M19,17.1a4.53,4.53,0,0,0-4.28,3.06H.36v3H14.71a4.52,4.52,0,0,0,8.55,0H59.64v-3H23.26A4.52,4.52,0,0,0,19,17.1Zm0,6.12a1.58,1.58,0,1,1,1.58-1.58A1.58,1.58,0,0,1,19,23.22Z"/><path class="cls-1" d="M41,33.81a4.53,4.53,0,0,0-4.27,3.06H.36v3H36.74a4.52,4.52,0,0,0,8.55,0H59.64v-3H45.29A4.54,4.54,0,0,0,41,33.81Zm0,6.13a1.58,1.58,0,1,1,1.58-1.58A1.58,1.58,0,0,1,41,39.94Z"/></svg>