<svg id="Layer_1" data-name="Layer 1" xmlns="http://www.w3.org/2000/svg" viewBox="0 0 60 60"><defs><style>.cls-1{fill:#0ec5db;}</style></defs><path class="cls-1" d="M30,59.61A29.71,29.71,0,0,1,1.49,38l2.86-.81a26.65,26.65,0,0,0,52-3.37l-2.93,2.93-2.1-2.1L57.08,29A1.48,1.48,0,0,1,59.61,30,29.64,29.64,0,0,1,30,59.61Z"/><path class="cls-1" d="M1.87,31.48a1.41,1.41,0,0,1-.57-.11A1.48,1.48,0,0,1,.39,30a29.62,29.62,0,0,1,58.12-8l-2.86.81a26.65,26.65,0,0,0-52,3.37l2.93-2.93,2.1,2.1L2.92,31.05A1.52,1.52,0,0,1,1.87,31.48Z"/><path class="cls-1" d="M41.07,43.19H18.93a8.35,8.35,0,0,1,0-16.7v3a5.39,5.39,0,1,0,0,10.77H41.07a5.39,5.39,0,1,0,0-10.77H39A1.48,1.48,0,0,1,37.5,28V25.16a5.39,5.39,0,0,0-10.77,0V28h-3V25.16a8.35,8.35,0,0,1,16.7,0v1.33h.61a8.35,8.35,0,0,1,0,16.7Z"/></svg>