<svg id="Layer_1" data-name="Layer 1" xmlns="http://www.w3.org/2000/svg" viewBox="0 0 60 60"><defs><style>.cls-1{fill:#0ec5db;}</style></defs><path class="cls-1" d="M46,27.37A13.45,13.45,0,1,1,59.42,13.93,13.46,13.46,0,0,1,46,27.37ZM46,3.21A10.72,10.72,0,1,0,56.69,13.93,10.73,10.73,0,0,0,46,3.21Z"/><path class="cls-1" d="M45.45,18.37h1a.89.89,0,0,0,.9-.9V5.54a.89.89,0,0,0-.9-.9h-1a.88.88,0,0,0-.63.24.87.87,0,0,0-.27.66V17.47a.89.89,0,0,0,.9.9Z"/><path class="cls-1" d="M47.33,20.17a.91.91,0,0,0-.64-.24H45.23a.88.88,0,0,0-.64.26.87.87,0,0,0-.26.64v1.49a.88.88,0,0,0,.26.64.87.87,0,0,0,.64.26h1.46a.92.92,0,0,0,.65-.26.85.85,0,0,0,.27-.64V20.83A.87.87,0,0,0,47.33,20.17Z"/><path class="cls-1" d="M19.92,25.7A19.37,19.37,0,0,0,.58,45V59.61h3V45A16.38,16.38,0,1,1,36.3,45V59.48h3V45A19.36,19.36,0,0,0,19.92,25.7Z"/><path class="cls-1" d="M28.25,40.35a5,5,0,0,0-3.58,1.49A5.06,5.06,0,0,0,16,45.41h3a2.11,2.11,0,0,1,4.21,0,5.07,5.07,0,0,0,5.06,5.06v-3a2.1,2.1,0,1,1,2.1-2.1h3A5.07,5.07,0,0,0,28.25,40.35Z"/><path class="cls-1" d="M19.92,24A10.36,10.36,0,0,0,30.26,13.69v-3a10.35,10.35,0,0,0-20.69,0v3A10.36,10.36,0,0,0,19.92,24Zm-7.4-13.31a7.4,7.4,0,0,1,14.79,0v3a7.4,7.4,0,0,1-14.79,0Z"/></svg>