<svg id="Layer_1" data-name="Layer 1" xmlns="http://www.w3.org/2000/svg" viewBox="0 0 60 60"><defs><style>.cls-1{fill:#0ec5db;}</style></defs><path class="cls-1" d="M56.65,19.94a22.26,22.26,0,0,1-2.79,10.73L56,32.91a25.16,25.16,0,0,0,3.6-13V16h-3Z"/><path class="cls-1" d="M32.67,55.46A3.48,3.48,0,0,1,30,56.65h0a3.5,3.5,0,0,1-2.63-1.18L8.94,34.65A22.22,22.22,0,0,1,3.35,19.92V16a12.59,12.59,0,0,1,25.17,0h3v0h0a12.59,12.59,0,0,1,25.17,0h3A15.52,15.52,0,0,0,30,9.43,15.51,15.51,0,0,0,.39,16v4a25.14,25.14,0,0,0,6.34,16.7L25.19,57.43A6.48,6.48,0,0,0,30,59.61h0a6.49,6.49,0,0,0,4.85-2.19L51.38,38.77l-2.06-2.14Z"/><path class="cls-1" d="M47.43,29.08h0a4.23,4.23,0,0,0-3.07,1.31l-7.53,7.83a1.35,1.35,0,0,1-1.9,0L23.66,26.66l-2.12,2.07L32.8,40.27a4.36,4.36,0,0,0,6.15,0l7.53-7.83a1.3,1.3,0,0,1,.94-.4h0a1.29,1.29,0,0,1,.94.4l9.06,9.41,2.13-2.05L50.5,30.39A4.2,4.2,0,0,0,47.43,29.08Z"/></svg>