<?xml version="1.0" encoding="utf-8"?>
<!-- Generator: Adobe Illustrator 25.0.0, SVG Export Plug-In . SVG Version: 6.00 Build 0)  -->
<svg version="1.1" id="Layer_1" xmlns="http://www.w3.org/2000/svg" xmlns:xlink="http://www.w3.org/1999/xlink" x="0px" y="0px"
	 viewBox="0 0 60 60" style="enable-background:new 0 0 60 60;" xml:space="preserve">
<style type="text/css">
	.st0{fill:#263238;}
</style>
<g>
	<g>
		<rect x="34.01" y="8.47" class="st0" width="25.54" height="2.96"/>
	</g>
	<g>
		<rect x="34.01" y="0.39" class="st0" width="25.54" height="2.96"/>
	</g>
	<g>
		<rect x="34.01" y="16.55" class="st0" width="25.54" height="2.96"/>
	</g>
	<g>
		<path class="st0" d="M3.4,59.61H0.45V45.04c0-10.66,8.67-19.34,19.34-19.34s19.34,8.67,19.34,19.34v14.44h-2.96V45.04
			c0-9.03-7.35-16.38-16.38-16.38S3.4,36.01,3.4,45.04V59.61z"/>
	</g>
	<g>
		<path class="st0" d="M19.78,24.04c-5.71,0-10.35-4.64-10.35-10.35v-2.96c0-5.71,4.64-10.35,10.35-10.35s10.35,4.64,10.35,10.35
			v2.96C30.13,19.4,25.49,24.04,19.78,24.04z M19.78,3.34c-4.08,0-7.39,3.32-7.39,7.39v2.96c0,4.08,3.31,7.39,7.39,7.39
			s7.39-3.32,7.39-7.39v-2.96C27.18,6.66,23.86,3.34,19.78,3.34z"/>
	</g>
	<g>
		<rect x="24.29" y="41.18" class="st0" width="8.82" height="2.96"/>
	</g>
	<g>
		<rect x="18.31" y="35.56" class="st0" width="2.96" height="22.12"/>
	</g>
</g>
</svg>
