<?xml version="1.0" encoding="utf-8"?>
<!-- Generator: Adobe Illustrator 25.0.0, SVG Export Plug-In . SVG Version: 6.00 Build 0)  -->
<svg version="1.1" id="Layer_1" xmlns="http://www.w3.org/2000/svg" xmlns:xlink="http://www.w3.org/1999/xlink" x="0px" y="0px"
	 viewBox="0 0 60 60" style="enable-background:new 0 0 60 60;" xml:space="preserve">
<style type="text/css">
	.st0{fill:#263238;}
</style>
<g>
	<path class="st0" d="M29.96,0.39c-10.32,0-19.74,5.24-25.18,14.03l2.51,1.56c4.9-7.91,13.38-12.63,22.67-12.63
		c14.7,0,26.66,11.96,26.66,26.65S44.66,56.66,29.96,56.66c-9.29,0-17.77-4.72-22.67-12.63l-2.51,1.56
		c5.45,8.78,14.86,14.03,25.18,14.03c16.33,0,29.62-13.29,29.62-29.62C59.57,13.67,46.29,0.39,29.96,0.39z"/>
	<polygon class="st0" points="9.25,21.17 0.43,30 9.25,38.83 11.34,36.73 6.09,31.48 37.85,31.48 37.85,28.52 6.09,28.52 
		11.34,23.26 	"/>
</g>
</svg>
