<?xml version="1.0" encoding="utf-8"?>
<!-- Generator: Adobe Illustrator 25.0.0, SVG Export Plug-In . SVG Version: 6.00 Build 0)  -->
<svg version="1.1" id="Layer_1" xmlns="http://www.w3.org/2000/svg" xmlns:xlink="http://www.w3.org/1999/xlink" x="0px" y="0px"
	 viewBox="0 0 60 60" style="enable-background:new 0 0 60 60;" xml:space="preserve">
<style type="text/css">
	.st0{fill:#263238;}
</style>
<g>
	<path class="st0" d="M56.65,19.94c0,2.29-0.37,4.53-1.05,6.67c0.88,0.62,1.68,1.33,2.42,2.11c1.04-2.79,1.59-5.75,1.59-8.78v-3.98
		h-2.96V19.94z"/>
	<path class="st0" d="M32.67,55.47c-0.68,0.77-1.61,1.19-2.63,1.19c0,0,0,0,0,0c-1.02,0-1.95-0.42-2.63-1.19L8.94,34.65
		c-3.61-4.07-5.59-9.3-5.59-14.74v-3.96c0-6.94,5.64-12.59,12.59-12.59s12.59,5.64,12.59,12.59h2.96c0-0.01,0-0.02,0-0.03h0
		c0-6.94,5.64-12.59,12.59-12.59s12.59,5.64,12.59,12.59h2.96c0-8.57-6.97-15.55-15.55-15.55c-6.24,0-11.6,3.72-14.07,9.04
		c-2.48-5.31-7.83-9.02-14.06-9.02c-8.57,0-15.55,6.97-15.55,15.55v3.96c0,6.16,2.25,12.09,6.34,16.7l18.46,20.82
		c1.23,1.39,3,2.18,4.85,2.18h0c1.85,0,3.62-0.8,4.85-2.19l2.76-3.12c-0.86-0.51-1.67-1.09-2.42-1.74L32.67,55.47z"/>
	<path class="st0" d="M46.03,26.49c-7.49,0-13.58,6.09-13.58,13.58s6.09,13.58,13.58,13.58s13.58-6.09,13.58-13.58
		S53.52,26.49,46.03,26.49z M46.03,50.69c-5.86,0-10.62-4.76-10.62-10.62s4.76-10.62,10.62-10.62s10.62,4.76,10.62,10.62
		S51.89,50.69,46.03,50.69z"/>
	<path class="st0" d="M47.77,34.02h-1.56c-0.16,0-0.31,0.04-0.43,0.12l-3.87,3.01c-0.13,0.09-0.19,0.21-0.19,0.34
		c0,0.08,0.03,0.16,0.08,0.24l0.74,0.97c0.08,0.12,0.19,0.17,0.33,0.17c0.1,0,0.19-0.03,0.26-0.08l2.61-2.01v8.92
		c0,0.11,0.04,0.21,0.12,0.29c0.08,0.08,0.18,0.12,0.29,0.12h1.61c0.12,0,0.21-0.04,0.29-0.12c0.08-0.08,0.12-0.18,0.12-0.29V34.44
		c0-0.12-0.04-0.21-0.12-0.29S47.89,34.02,47.77,34.02z"/>
</g>
</svg>
