<?xml version="1.0" encoding="utf-8"?>
<!-- Generator: Adobe Illustrator 25.0.0, SVG Export Plug-In . SVG Version: 6.00 Build 0)  -->
<svg version="1.1" id="Layer_1" xmlns="http://www.w3.org/2000/svg" xmlns:xlink="http://www.w3.org/1999/xlink" x="0px" y="0px"
	 viewBox="0 0 60 60" style="enable-background:new 0 0 60 60;" xml:space="preserve">
<style type="text/css">
	.st0{fill:#263238;}
</style>
<g>
	<g>
		<path class="st0" d="M22.66,39.45c-0.36,0-0.72-0.09-1.04-0.26c-0.71-0.38-1.16-1.13-1.16-1.94V15.76c0-1.38,1.12-2.5,2.5-2.5
			h34.28c1.41,0,2.56,1.15,2.56,2.56v16.66c0,1.21-0.99,2.2-2.2,2.2H30.56l-6.69,4.39C23.5,39.33,23.08,39.45,22.66,39.45z
			 M23.44,16.25V35.8l5.68-3.73c0.36-0.24,0.78-0.36,1.21-0.36h26.49V16.25H23.44z"/>
	</g>
	<path class="st0" d="M36.76,10.28V6.06c0-3.13-2.55-5.68-5.68-5.68H5.88c-3.13,0-5.68,2.55-5.68,5.68v47.87
		c0,3.13,2.55,5.68,5.68,5.68h25.2c3.13,0,5.68-2.55,5.68-5.68V37.68h-2.98v10.76H3.19V6.06c0-1.49,1.21-2.7,2.7-2.7h25.2
		c1.49,0,2.7,1.21,2.7,2.7v4.22H36.76z M33.78,51.42v2.51c0,1.49-1.21,2.7-2.7,2.7H5.88c-1.49,0-2.7-1.21-2.7-2.7v-2.51H33.78z"/>
	<g>
		<path class="st0" d="M32.51,29.89c-0.07-0.07-0.1-0.15-0.1-0.26v-7.85l-2.3,1.76c-0.06,0.05-0.14,0.08-0.23,0.08
			c-0.12,0-0.22-0.05-0.29-0.15l-0.65-0.85c-0.05-0.07-0.08-0.14-0.08-0.21c0-0.12,0.06-0.22,0.17-0.31l3.41-2.65
			c0.11-0.07,0.24-0.11,0.38-0.11h1.37c0.1,0,0.19,0.03,0.26,0.11c0.07,0.07,0.1,0.16,0.1,0.26v9.92c0,0.1-0.03,0.19-0.1,0.26
			C34.37,29.97,34.29,30,34.19,30h-1.42C32.67,30,32.59,29.97,32.51,29.89z"/>
		<path class="st0" d="M39.57,29.89c-0.07-0.07-0.1-0.15-0.1-0.26v-7.85l-2.3,1.76c-0.06,0.05-0.14,0.08-0.23,0.08
			c-0.12,0-0.22-0.05-0.29-0.15L36,22.62c-0.05-0.07-0.08-0.14-0.08-0.21c0-0.12,0.06-0.22,0.17-0.31l3.41-2.65
			c0.11-0.07,0.24-0.11,0.38-0.11h1.37c0.1,0,0.19,0.03,0.26,0.11c0.07,0.07,0.1,0.16,0.1,0.26v9.92c0,0.1-0.03,0.19-0.1,0.26
			C41.43,29.97,41.35,30,41.25,30h-1.42C39.73,30,39.65,29.97,39.57,29.89z"/>
		<path class="st0" d="M43.46,29.89c-0.07-0.07-0.1-0.15-0.1-0.26v-0.79c0-0.28,0.13-0.52,0.38-0.71l2.37-2.36
			c0.72-0.57,1.28-1.03,1.67-1.39c0.39-0.36,0.68-0.69,0.87-1c0.19-0.31,0.29-0.6,0.29-0.9c0-0.48-0.13-0.85-0.38-1.13
			c-0.25-0.27-0.64-0.41-1.16-0.41c-0.51,0-0.91,0.15-1.19,0.45c-0.29,0.3-0.47,0.69-0.54,1.17c-0.03,0.12-0.09,0.21-0.17,0.27
			c-0.09,0.06-0.18,0.08-0.28,0.08h-1.37c-0.09,0-0.17-0.03-0.23-0.09c-0.06-0.06-0.09-0.14-0.09-0.23c0.02-0.6,0.19-1.16,0.5-1.68
			c0.31-0.52,0.75-0.94,1.33-1.26c0.58-0.32,1.26-0.48,2.04-0.48c0.81,0,1.5,0.14,2.07,0.42c0.57,0.28,0.99,0.66,1.28,1.15
			c0.29,0.49,0.43,1.04,0.43,1.66c0,0.68-0.19,1.3-0.57,1.85c-0.38,0.55-0.97,1.14-1.77,1.77l-2.11,2.14h4.3
			c0.11,0,0.2,0.03,0.27,0.11c0.07,0.07,0.11,0.16,0.11,0.27v1.1c0,0.11-0.04,0.2-0.11,0.27c-0.07,0.07-0.16,0.1-0.27,0.1h-7.29
			C43.62,30,43.54,29.97,43.46,29.89z"/>
	</g>
</g>
</svg>
