<?xml version="1.0" encoding="utf-8"?>
<!-- Generator: Adobe Illustrator 25.0.0, SVG Export Plug-In . SVG Version: 6.00 Build 0)  -->
<svg version="1.1" id="Layer_1" xmlns="http://www.w3.org/2000/svg" xmlns:xlink="http://www.w3.org/1999/xlink" x="0px" y="0px"
	 viewBox="0 0 60 60" style="enable-background:new 0 0 60 60;" xml:space="preserve">
<style type="text/css">
	.st0{fill:#263238;}
</style>
<g>
	<path class="st0" d="M19.96,0.39L16.1,4.24L12.37,0.5L0.5,12.37l3.73,3.73l-3.85,3.85l5.76,5.77L25.72,6.15L19.96,0.39z
		 M4.56,12.37l7.81-7.81l1.71,1.71l-7.81,7.81L4.56,12.37z M4.45,19.95l1.82-1.82l0,0L18.13,6.27l0,0l1.82-1.82l1.71,1.71
		L6.15,21.66L4.45,19.95z"/>
	<path class="st0" d="M59.61,40.04l-5.76-5.76l-6.9,6.9L20.62,14.86l-2.03,2.03l26.32,26.32l-0.85,0.85l-0.85,0.85L16.89,18.6
		l-2.03,2.03l26.32,26.32l-6.9,6.9l5.76,5.77l3.85-3.85l3.73,3.73L59.5,47.63l-3.74-3.74L59.61,40.04z M38.34,53.85l4.87-4.87l0,0
		l2.88-2.88l7.76-7.75l1.71,1.7l-1.82,1.82l0,0L47.8,47.8l-7.75,7.76L38.34,53.85z M53.73,45.93l1.71,1.7l-7.81,7.81l-1.71-1.7
		l3.9-3.9L53.73,45.93z"/>
</g>
</svg>
