<?xml version="1.0" encoding="utf-8"?>
<!-- Generator: Adobe Illustrator 25.0.0, SVG Export Plug-In . SVG Version: 6.00 Build 0)  -->
<svg version="1.1" id="Layer_1" xmlns="http://www.w3.org/2000/svg" xmlns:xlink="http://www.w3.org/1999/xlink" x="0px" y="0px"
	 viewBox="0 0 60 60" style="enable-background:new 0 0 60 60;" xml:space="preserve">
<style type="text/css">
	.st0{fill:#263238;}
</style>
<g>
	<path class="st0" d="M56.65,19.94c0,3.79-0.98,7.47-2.79,10.73l2.15,2.24c2.34-3.89,3.6-8.37,3.6-12.97v-3.98h-2.96V19.94z"/>
	<path class="st0" d="M32.67,55.46c-0.67,0.75-1.62,1.19-2.63,1.19h0c-1.01,0-1.97-0.43-2.63-1.19L8.94,34.65
		c-3.61-4.07-5.59-9.3-5.59-14.74v-3.96C3.35,9.02,9,3.38,15.94,3.38s12.58,5.65,12.58,12.58h2.96c0-0.01,0-0.02,0-0.03h0
		c0-6.94,5.64-12.58,12.58-12.58s12.58,5.65,12.58,12.58h2.96c0-8.57-6.97-15.54-15.54-15.54c-6.24,0-11.6,3.72-14.07,9.04
		c-2.48-5.31-7.83-9.01-14.06-9.01c-8.57,0-15.54,6.97-15.54,15.54v3.96c0,6.16,2.25,12.09,6.34,16.7l18.46,20.81
		c1.23,1.39,3,2.18,4.85,2.18c0,0,0,0,0.01,0c1.85,0,3.62-0.8,4.85-2.19l16.49-18.65l-2.06-2.14L32.67,55.46z"/>
	<path class="st0" d="M47.43,29.08C47.42,29.08,47.42,29.08,47.43,29.08c-1.17,0-2.27,0.47-3.08,1.31l-7.54,7.83
		c-0.5,0.52-1.38,0.52-1.89-0.01L23.66,26.66l-2.12,2.07L32.8,40.27c1.63,1.69,4.52,1.69,6.15,0l7.54-7.83
		c0.25-0.26,0.58-0.4,0.94-0.4h0c0.36,0,0.69,0.14,0.94,0.4l9.06,9.41l2.13-2.05l-9.06-9.41C49.69,29.54,48.6,29.08,47.43,29.08z"/>
</g>
</svg>
