<?xml version="1.0" encoding="utf-8"?>
<!-- Generator: Adobe Illustrator 25.0.0, SVG Export Plug-In . SVG Version: 6.00 Build 0)  -->
<svg version="1.1" id="Layer_1" xmlns="http://www.w3.org/2000/svg" xmlns:xlink="http://www.w3.org/1999/xlink" x="0px" y="0px"
	 viewBox="0 0 60 60" style="enable-background:new 0 0 60 60;" xml:space="preserve">
<style type="text/css">
	.st0{fill:#263238;}
</style>
<g>
	<path class="st0" d="M45.29,3.44C44.67,1.67,43,0.39,41.01,0.39c-1.98,0-3.66,1.29-4.28,3.06H0.36v2.96h36.38
		c0.62,1.78,2.29,3.06,4.28,3.06c1.99,0,3.66-1.29,4.28-3.06h14.35V3.44H45.29z M41.01,6.51c-0.87,0-1.58-0.71-1.58-1.58
		c0-0.87,0.71-1.58,1.58-1.58c0.87,0,1.58,0.71,1.58,1.58C42.59,5.8,41.88,6.51,41.01,6.51z"/>
	<path class="st0" d="M18.99,50.53c-1.99,0-3.66,1.29-4.28,3.06H0.36v2.96h14.35c0.62,1.78,2.29,3.06,4.28,3.06
		c1.98,0,3.66-1.29,4.28-3.06h36.38v-2.96H23.26C22.65,51.81,20.97,50.53,18.99,50.53z M18.99,56.65c-0.87,0-1.58-0.71-1.58-1.58
		c0-0.87,0.71-1.58,1.58-1.58c0.87,0,1.58,0.71,1.58,1.58C20.57,55.94,19.86,56.65,18.99,56.65z"/>
	<path class="st0" d="M18.99,17.1c-1.99,0-3.66,1.29-4.28,3.06H0.36v2.96h14.35c0.62,1.77,2.29,3.06,4.28,3.06
		c1.98,0,3.66-1.29,4.28-3.06h36.38v-2.96H23.26C22.65,18.38,20.97,17.1,18.99,17.1z M18.99,23.22c-0.87,0-1.58-0.71-1.58-1.58
		c0-0.87,0.71-1.58,1.58-1.58c0.87,0,1.58,0.71,1.58,1.58C20.57,22.51,19.86,23.22,18.99,23.22z"/>
	<path class="st0" d="M41.01,33.81c-1.99,0-3.66,1.29-4.28,3.06H0.36v2.96h36.38c0.62,1.78,2.29,3.06,4.28,3.06s3.66-1.29,4.28-3.06
		h14.35v-2.96H45.29C44.67,35.1,43,33.81,41.01,33.81z M41.01,39.94c-0.87,0-1.58-0.71-1.58-1.58c0-0.87,0.71-1.58,1.58-1.58
		c0.87,0,1.58,0.71,1.58,1.58C42.59,39.23,41.88,39.94,41.01,39.94z"/>
</g>
</svg>
